<?xml version="1.0" encoding="UTF-8" standalone="no"?>
<svg
   id="Layer_1"
   enable-background="new 0 0 135 135"
   height="512"
   viewBox="0 0 135 135"
   width="512"
   version="1.1"
   sodipodi:docname="ecosystem-nixos.svg"
   inkscape:version="1.3.2 (091e20ef0f, 2023-11-25)"
   xmlns:inkscape="http://www.inkscape.org/namespaces/inkscape"
   xmlns:sodipodi="http://sodipodi.sourceforge.net/DTD/sodipodi-0.dtd"
   xmlns="http://www.w3.org/2000/svg"
   xmlns:svg="http://www.w3.org/2000/svg">
  <defs
     id="defs62" />
  <sodipodi:namedview
     id="namedview62"
     pagecolor="#ffffff"
     bordercolor="#000000"
     borderopacity="0.25"
     inkscape:showpageshadow="2"
     inkscape:pageopacity="0.0"
     inkscape:pagecheckerboard="0"
     inkscape:deskcolor="#d1d1d1"
     inkscape:zoom="0.85742188"
     inkscape:cx="142.87016"
     inkscape:cy="289.23918"
     inkscape:window-width="2752"
     inkscape:window-height="1124"
     inkscape:window-x="0"
     inkscape:window-y="0"
     inkscape:window-maximized="1"
     inkscape:current-layer="g61" />
  <g
     id="g61">
    <g
       id="g1">
      <path
         d="m 123.2,112.8 h -16.1 c 0,-4.4 3.6,-8 8,-8 4.5,0 8.1,3.6 8.1,8 z"
         fill="#bcdae6"
         id="path1" />
    </g>
    <g
       opacity="0.1"
       id="g2">
      <path
         d="m 107.3,111.2 c -0.1,0.5 -0.2,1.1 -0.2,1.7 h 16.1 c 0,-0.6 -0.1,-1.1 -0.2,-1.7 z"
         id="path2" />
    </g>
    <g
       id="g3">
      <path
         d="m 119.6,26.9 v 65.2 c 0,2.6 -2.1,4.7 -4.7,4.7 H 20.1 c -2.6,0 -4.7,-2.1 -4.7,-4.7 V 26.9 c 0,-2.6 2.1,-4.7 4.7,-4.7 h 94.7 c 2.6,0 4.8,2.1 4.8,4.7 z"
         fill="#bcdae6"
         id="path3" />
    </g>
    <g
       opacity="0.02"
       id="g4">
      <path
         d="m 119.6,26.9 v 65.2 c 0,2.6 -2.1,4.7 -4.7,4.7 H 20.1 c -2.4,0 -4.5,-1.8 -4.7,-4.2 h 29.5 c 38.6,0 69.9,-31.3 69.9,-69.9 0,-0.2 0,-0.3 0,-0.5 2.6,0 4.8,2.1 4.8,4.7 z"
         id="path4" />
    </g>
    <g
       opacity="0.4"
       id="g5">
      <path
         d="M 119,24.6 C 118.3,24.2 117.6,24 116.7,24 H 22 c -2.6,0 -4.7,2.1 -4.7,4.7 V 94 c 0,0.8 0.2,1.6 0.6,2.3 -1.5,-0.8 -2.5,-2.4 -2.5,-4.2 V 26.9 c 0,-2.6 2.1,-4.7 4.7,-4.7 h 94.7 c 1.8,0 3.4,1 4.2,2.4 z"
         fill="#ffffff"
         id="path5" />
    </g>
    <g
       id="g6">
      <path
         d="M 85.6,112.8 H 49.4 l 2.4,-2.4 c 2.9,-2.9 4.8,-6.7 5.4,-10.8 0.1,-0.9 0.2,-1.9 0.2,-2.8 h 20.1 c 0,1 0.1,1.9 0.2,2.8 0.2,1.6 0.7,3.1 1.3,4.5 1,2.3 2.4,4.5 4.2,6.3 z"
         fill="#bcdae6"
         id="path6" />
    </g>
    <g
       opacity="0.1"
       id="g7">
      <path
         d="M 77.7,99.6 H 57.2 c 0.1,-0.9 0.2,-1.9 0.2,-2.8 h 20.1 c 0,1 0.1,1.9 0.2,2.8 z"
         id="path7" />
    </g>
    <g
       id="g8"
       style="fill:#dee3f0;fill-opacity:1">
      <path
         d="m 20.1,26.9 h 94.7 V 82.2 H 20.1 Z"
         fill="#ffffff"
         id="path8"
         style="fill:#dee3f0;fill-opacity:1" />
    </g>
    <g
       id="g12">
      <circle
         cx="67.5"
         cy="91.900002"
         fill="#ffffff"
         r="1.9"
         id="circle11" />
    </g>
    <g
       id="g16">
      <g
         id="g13">
        <path
           d="m 32.3,99.4 v 7.1 c 0,3.4 -2.8,6.2 -6.2,6.2 -1.7,0 -3.3,-0.7 -4.4,-1.8 -1.1,-1.1 -1.8,-2.7 -1.8,-4.4 v -7.1 z"
           fill="#00dbdb"
           id="path12" />
      </g>
      <g
         opacity="0.3"
         id="g14">
        <path
           d="m 27.3,112.6 c -0.4,0.1 -0.8,0.1 -1.2,0.1 -1.7,0 -3.3,-0.7 -4.4,-1.8 -1.1,-1.1 -1.8,-2.7 -1.8,-4.4 v -7.1 h 2.4 v 7.1 c 0,1.7 0.7,3.3 1.8,4.4 0.9,0.9 2,1.5 3.2,1.7 z"
           fill="#ffffff"
           id="path13" />
      </g>
      <g
         opacity="0.3"
         id="g15">
        <path
           d="m 23.6,102.5 v 4.1 c 0,0.2 -0.2,0.4 -0.4,0.4 h -2 c -0.2,0 -0.4,-0.2 -0.4,-0.4 v -4.1 c 0,-0.2 0.2,-0.4 0.4,-0.4 h 2 c 0.2,0 0.4,0.2 0.4,0.4 z"
           fill="#ffffff"
           id="path14" />
      </g>
    </g>
    <path
       d="m 20.1,82.7 h 94.7 c 0.3,0 0.5,-0.2 0.5,-0.5 V 26.9 c 0,-0.3 -0.2,-0.5 -0.5,-0.5 H 20.1 c -0.3,0 -0.5,0.2 -0.5,0.5 v 55.3 c 0,0.3 0.3,0.5 0.5,0.5 z m 0.5,-55.3 h 93.7 V 81.7 H 20.6 Z"
       id="path42"
       style="fill:#384b7d" />
    <path
       d="m 131.5,112.3 c -0.3,0 -0.5,0.2 -0.5,0.5 0,0.3 0.2,0.5 0.5,0.5 h 0.1 c 0.3,0 0.5,-0.2 0.5,-0.5 0,-0.3 -0.3,-0.5 -0.6,-0.5 z"
       id="path43"
       style="fill:#384b7d" />
    <path
       d="m 130.1,112.3 h -6.4 c 0,-0.7 -0.2,-1.4 -0.4,-2.1 -1.1,-3.4 -4.3,-5.9 -8.1,-5.9 -4.5,0 -8.3,3.6 -8.5,8 H 92.5 c -0.3,0 -0.5,0.2 -0.5,0.5 0,0.3 0.2,0.5 0.5,0.5 H 130 c 0.3,0 0.5,-0.2 0.5,-0.5 0,-0.3 -0.2,-0.5 -0.4,-0.5 z m -15.5,-7 v 2 c 0,0.3 0.2,0.5 0.5,0.5 0.3,0 0.5,-0.2 0.5,-0.5 v -2 c 2.9,0.2 5.3,2 6.4,4.6 h -3.9 c -0.3,0 -0.5,0.2 -0.5,0.5 0,0.3 0.2,0.5 0.5,0.5 h 4.3 c 0.1,0.5 0.2,1 0.2,1.4 h -15 c 0.3,-3.7 3.3,-6.7 7,-7 z"
       id="path44"
       style="fill:#384b7d" />
    <path
       d="m 89.5,112.3 h -3.8 l -2.2,-2.2 c -3.4,-3.4 -5.4,-8 -5.5,-12.8 h 36.8 c 2.9,0 5.2,-2.3 5.2,-5.2 V 26.9 c 0,-2.9 -2.4,-5.2 -5.2,-5.2 H 20.1 c -2.9,0 -5.2,2.3 -5.2,5.2 v 65.2 c 0,2.9 2.4,5.2 5.2,5.2 h 5.5 v 0.1 c 0,0.3 0.2,0.5 0.5,0.5 0.3,0 0.5,-0.2 0.5,-0.5 v -0.1 h 30.3 c -0.1,4.8 -2.1,9.4 -5.5,12.8 l -2.2,2.2 h -2.5 c -0.3,0 -0.5,0.2 -0.5,0.5 0,0.3 0.2,0.5 0.5,0.5 h 38.8 4 c 0.3,0 0.5,-0.2 0.5,-0.5 0,-0.3 -0.2,-0.5 -0.5,-0.5 z M 20.1,22.7 h 94.7 c 2.3,0 4.2,1.9 4.2,4.2 V 86.5 H 15.9 V 26.9 c 0,-2.3 1.9,-4.2 4.2,-4.2 z m 8.6,66.6 h -3 c -0.1,0 -0.3,0 -0.4,-0.1 -0.3,-0.1 -0.5,0.1 -0.6,0.3 -0.1,0.3 0.1,0.5 0.3,0.6 0.2,0.1 0.5,0.1 0.7,0.1 h 3 c 0.8,0 1.4,0.6 1.4,1.4 0,0.8 -0.6,1.4 -1.4,1.4 h -0.5 c -1.4,0 -2.6,1.2 -2.6,2.6 v 0.5 h -5.5 c -2.3,0 -4.2,-1.9 -4.2,-4.2 v -4.5 h 103.2 v 4.5 c 0,2.3 -1.9,4.2 -4.2,4.2 H 77.5 57.4 26.6 v -0.5 c 0,-0.9 0.7,-1.6 1.6,-1.6 h 0.5 c 1.3,0 2.4,-1.1 2.4,-2.4 0,-1.3 -1,-2.3 -2.4,-2.3 z m 21.9,23 1.5,-1.5 c 3.6,-3.6 5.7,-8.4 5.8,-13.5 H 77 c 0.1,5.1 2.2,9.9 5.8,13.5 l 1.5,1.5 z"
       id="path45"
       style="fill:#384b7d" />
    <path
       d="M 44.7,112.3 H 29.5 c 1.8,-1.1 3.1,-3 3.3,-5.2 1.5,-0.2 2.7,-1.5 2.7,-3.2 0,-1.6 -1.2,-2.9 -2.7,-3.2 v -1.4 c 0,-0.3 -0.2,-0.5 -0.5,-0.5 H 19.9 c -0.3,0 -0.5,0.2 -0.5,0.5 v 7.1 c 0,2.3 1.2,4.5 3.3,5.8 h -14 c -0.3,0 -0.5,0.2 -0.5,0.5 0,0.3 0.2,0.5 0.5,0.5 h 36 c 0.3,0 0.5,-0.2 0.5,-0.5 0,-0.3 -0.2,-0.4 -0.5,-0.4 z M 34.5,104 c 0,1 -0.7,1.9 -1.7,2.1 v -4.3 c 1,0.3 1.7,1.2 1.7,2.2 z m -14.1,2.5 v -3.9 H 28 c 0.3,0 0.5,-0.2 0.5,-0.5 0,-0.3 -0.2,-0.5 -0.5,-0.5 h -7.6 v -1.7 h 11.4 c 0,0.2 0,1.8 0,1.7 h -1.7 c -0.3,0 -0.5,0.2 -0.5,0.5 0,0.3 0.2,0.5 0.5,0.5 h 1.7 v 3.9 c 0,3.1 -2.6,5.7 -5.7,5.7 -1.5,0 -2.9,-0.6 -4,-1.7 -1.1,-1 -1.7,-2.4 -1.7,-4 z"
       id="path46"
       style="fill:#384b7d" />
    <path
       d="M 6.2,112.3 H 3.5 c -0.3,0 -0.5,0.2 -0.5,0.5 0,0.3 0.2,0.5 0.5,0.5 h 2.7 c 0.3,0 0.5,-0.2 0.5,-0.5 0,-0.3 -0.2,-0.5 -0.5,-0.5 z"
       id="path47"
       style="fill:#384b7d" />
    <path
       d="m 67.5,94.3 c 1.3,0 2.4,-1.1 2.4,-2.4 0,-1.3 -1.1,-2.4 -2.4,-2.4 -1.3,0 -2.4,1.1 -2.4,2.4 0,1.3 1.1,2.4 2.4,2.4 z m 0,-3.8 c 0.8,0 1.4,0.6 1.4,1.4 0,0.8 -0.6,1.4 -1.4,1.4 -0.8,0 -1.4,-0.6 -1.4,-1.4 0,-0.8 0.6,-1.4 1.4,-1.4 z"
       id="path48"
       style="fill:#384b7d" />
    <path
       d="M 116.1,109.9 H 116 c -0.3,0 -0.5,0.2 -0.5,0.5 0,0.3 0.2,0.5 0.5,0.5 h 0.2 c 0.3,0 0.5,-0.2 0.5,-0.5 0,-0.3 -0.3,-0.5 -0.6,-0.5 z"
       id="path49"
       style="fill:#384b7d" />
    <g
       id="Flake"
       transform="matrix(0.13305308,0,0,0.1416993,15.680288,22.706143)"
       style="clip-rule:evenodd;fill-rule:evenodd;stroke-linecap:round;stroke-linejoin:round;stroke-miterlimit:2">
        <g
   id="path4861"
   transform="translate(66.1334,798.311)">
            <path
   d="m 247.523,-568.202 97.757,169.34 -44.925,0.422 -26.099,-45.495 -26.285,45.252 -22.322,-0.009 -11.433,-19.752 37.448,-64.392 -26.583,-46.26 z"
   style="fill:#5277c3;stroke:#ffffff;stroke-width:10px"
   id="path5-6" />

        </g>

        <g
   id="use4863"
   transform="translate(66.1334,798.311)">
            <path
   d="m 282.807,-637.955 -97.774,169.331 -22.827,-38.696 26.35,-45.35 -52.332,-0.138 -11.153,-19.335 11.389,-19.777 74.489,0.235 26.771,-46.152 z"
   style="fill:#d52d00;stroke:#ffffff;stroke-width:10px"
   id="path6-7" />

        </g>

        <g
   id="use4865"
   transform="translate(66.1334,798.311)">
            <path
   d="m 290.308,-502.594 195.532,0.009 -22.098,39.118 -52.45,-0.146 26.047,45.39 -11.168,19.327 -22.822,0.025 -37.041,-64.627 -53.355,-0.108 z"
   style="fill:#d52d00;stroke:#ffffff;stroke-width:10px"
   id="path7-5" />

        </g>

        <g
   id="use4867"
   transform="translate(66.1334,798.311)">
            <path
   d="m 404.115,-576.791 -97.758,-169.34 44.926,-0.421 26.099,45.495 26.285,-45.252 22.322,0.009 11.432,19.751 -37.448,64.392 26.584,46.261 z"
   style="fill:#d52d00;stroke:#ffffff;stroke-width:10px"
   id="path8-3" />

        </g>

        <g
   id="path4873"
   transform="translate(66.1334,798.311)">
            <path
   d="m 247.523,-568.202 97.757,169.34 -44.925,0.422 -26.099,-45.495 -26.285,45.252 -22.322,-0.009 -11.433,-19.752 37.448,-64.392 -26.583,-46.26 z"
   style="fill:#5277c3;stroke:#ffffff;stroke-width:10px"
   id="path9" />

        </g>

        <g
   id="use4875"
   transform="translate(66.1334,798.311)">
            <path
   d="m 361.069,-642.826 -195.531,-0.01 22.097,-39.117 52.45,0.145 -26.047,-45.389 11.169,-19.327 22.822,-0.025 37.041,64.627 53.354,0.108 z"
   style="fill:#d362a4;stroke:#ffffff;stroke-width:10px"
   id="path10" />

        </g>

        <g
   id="use4877"
   transform="translate(66.1334,798.311)">
            <path
   d="m 368.697,-507.074 97.774,-169.33 22.828,38.696 -26.35,45.35 52.332,0.137 11.153,19.336 -11.389,19.777 -74.49,-0.235 -26.771,46.152 z"
   style="fill:#a30262;stroke:#ffffff;stroke-width:10px"
   id="path11" />

        </g>

        <g
   id="path3336-6"
   transform="translate(66.1334,798.311)">
            <path
   d="m 247.639,-568.311 97.758,169.341 -44.926,0.421 -26.099,-45.495 -26.285,45.252 -22.322,-0.009 -11.433,-19.752 37.449,-64.392 -26.584,-46.26 z"
   style="fill:#ff9a56;stroke:#ffffff;stroke-width:10px"
   id="path12-5" />

        </g>

    </g>
  </g>
</svg>
