<?xml version="1.0" encoding="UTF-8" standalone="no"?>
<svg
   id="Layer_1"
   enable-background="new 0 0 135 135"
   height="512"
   viewBox="0 0 135 135"
   width="512"
   version="1.1"
   sodipodi:docname="points-evolution.svg"
   inkscape:version="1.3.2 (091e20ef0f, 2023-11-25)"
   xmlns:inkscape="http://www.inkscape.org/namespaces/inkscape"
   xmlns:sodipodi="http://sodipodi.sourceforge.net/DTD/sodipodi-0.dtd"
   xmlns="http://www.w3.org/2000/svg"
   xmlns:svg="http://www.w3.org/2000/svg">
  <defs
     id="defs41" />
  <sodipodi:namedview
     id="namedview41"
     pagecolor="#ffffff"
     bordercolor="#000000"
     borderopacity="0.25"
     inkscape:showpageshadow="2"
     inkscape:pageopacity="0.0"
     inkscape:pagecheckerboard="0"
     inkscape:deskcolor="#d1d1d1"
     inkscape:zoom="0.60628882"
     inkscape:cx="-825.51415"
     inkscape:cy="199.57485"
     inkscape:window-width="2752"
     inkscape:window-height="1124"
     inkscape:window-x="0"
     inkscape:window-y="0"
     inkscape:window-maximized="1"
     inkscape:current-layer="Layer_1" />
  <path
     d="m 63.982365,78.141428 h 20.120573 c 0.454838,0 0.822887,-0.192368 0.822887,-0.430097 0,-0.237729 -0.368049,-0.430097 -0.822887,-0.430097 H 63.982365 c -0.454838,0 -0.822888,0.192368 -0.822888,0.430097 0,0.237729 0.36805,0.430097 0.822888,0.430097 z"
     id="path25-0"
     style="fill:#384b7d;stroke:#b55690;stroke-width:0.876373;stroke-dasharray:none;stroke-opacity:1" />
  <path
     d="M 60.736968,71.293759 H 87.88278 c 0.613647,0 1.110204,-0.172675 1.110204,-0.386069 0,-0.213394 -0.496557,-0.386069 -1.110204,-0.386069 H 60.736968 c -0.613647,0 -1.110204,0.172675 -1.110204,0.386069 0,0.213394 0.496557,0.386069 1.110204,0.386069 z"
     id="path25-0-6"
     style="fill:#384b7d;stroke:#d162a4;stroke-width:0.964428;stroke-dasharray:none;stroke-opacity:1" />
  <path
     d="m 63.818868,64.574786 h 23.770929 c 0.537358,0 0.97218,-0.181458 0.97218,-0.405706 0,-0.224248 -0.434823,-0.405706 -0.97218,-0.405706 H 63.818868 c -0.537355,0 -0.97218,0.181458 -0.97218,0.405706 0,0.224248 0.434825,0.405706 0.97218,0.405706 z"
     id="path25-0-6-2"
     style="fill:#ff9a56;fill-opacity:1;stroke:#ff9a56;stroke-width:0.925155;stroke-dasharray:none;stroke-opacity:1" />
  <path
     d="m 70.793785,52.231844 h 8.10242 c 0.18316,0 0.331371,-0.247332 0.331371,-0.552986 0,-0.305654 -0.148211,-0.552986 -0.331371,-0.552986 h -8.10242 c -0.18316,0 -0.331372,0.247332 -0.331372,0.552986 0,0.305654 0.148212,0.552986 0.331372,0.552986 z"
     id="path25-0-6-6-1"
     style="fill:#d52d00;stroke:#d52d00;stroke-width:0.630594;stroke-dasharray:none;stroke-opacity:1;fill-opacity:1" />
  <path
     d="m 52.523547,61.709524 c 0.105511,-0.151675 0.07335,-0.363555 -0.07191,-0.473726 L 40.517654,52.184743 c -0.145261,-0.11017 -0.348182,-0.07658 -0.453694,0.07509 -0.105512,0.151673 -0.07335,0.363555 0.07191,0.473725 l 11.93398,9.051054 c 0.14526,0.110171 0.348182,0.07658 0.453694,-0.07509 z"
     id="path27-6"
     style="fill:#a30262;stroke:#a30262;stroke-width:0.195591;stroke-dasharray:none;stroke-opacity:1;fill-opacity:1" />
  <path
     d="m 47.825783,127.16382 c 0,1.77688 1.434421,3.21118 3.211181,3.21118 1.77689,0 3.211182,-1.4343 3.211182,-3.21118 0,-11.98836 15.477982,-23.59152 21.450729,-27.05959 1.006104,-0.577916 24.661905,-14.493032 24.661905,-32.604146 0,-17.575909 -22.199945,-31.14843 -24.512033,-32.518562 -0.06428,-0.04286 -0.128441,-0.06416 -0.149872,-0.08559 -0.02143,-0.02143 -0.06428,-0.04286 -0.08559,-0.04286 -1.434418,-0.877663 -21.365143,-13.05875 -21.365143,-27.0167255 0,-1.7768898 -1.434288,-3.2111812 -3.211178,-3.2111812 -1.77676,0 -3.211181,1.4342909 -3.211181,3.2111812 0,17.5544815 22.199947,31.1484315 24.512035,32.5185665 0.04286,0.02143 0.107018,0.06415 0.149872,0.08559 0,0 0.04285,0.02143 0.08559,0.04286 1.434418,0.877663 21.365143,13.037453 21.365143,27.016724 0,11.988357 -15.477981,23.591522 -21.450729,27.059585 -1.006111,0.577925 -24.661911,14.493038 -24.661911,32.604148 z"
     fill="#ff4b3a"
     id="path1"
     style="stroke:#384b7d;stroke-opacity:1;stroke-width:0.73643555;stroke-dasharray:none;fill:#7eb2de;fill-opacity:1" />
  <path
     d="m 96.1371,66.583382 c 0.007,11.99543 -15.471016,23.600296 -21.445244,27.06726 -1.012359,0.573822 -24.66756,14.496368 -24.667984,32.603178 0.0018,1.77787 1.432248,3.2088 3.209908,3.20683 0.01557,0.006 0.03752,-0.003 0.04854,-0.007 -0.574543,0.57307 -1.372974,0.91668 -2.248566,0.91848 -1.77766,0.002 -3.208084,-1.42895 -3.209911,-3.20683 C 47.824268,109.05829 71.479469,95.13575 72.491829,94.561928 78.466057,91.094963 93.944016,79.490089 93.937073,67.494667 93.93705,53.524864 74.014511,41.363194 72.566528,40.481033 c -0.03564,-0.02394 -0.08235,-0.04329 -0.08235,-0.04329 -0.03571,-0.02391 -0.102486,-0.06075 -0.149201,-0.0801 -2.30973,-1.375988 -24.511585,-14.964626 -24.51326,-32.5164948 0.0027,-1.7668386 1.411621,-3.1880054 3.169262,-3.2071695 -0.596565,0.5821915 -0.969291,1.393538 -0.969234,2.2958879 0.0017,17.5518684 22.203537,31.1405064 24.51326,32.5164944 0.04671,0.01935 0.113495,0.05619 0.1492,0.0801 0,0 0.04672,0.01935 0.08235,0.04329 1.447983,0.88216 21.370521,13.043831 21.370544,27.01363 z"
     fill="#fc6868"
     id="path2"
     style="stroke:#384b7d;stroke-opacity:1;stroke-width:0.73643555;stroke-dasharray:none;fill:#c6ddf0;fill-opacity:1" />
  <path
     d="m 100.35671,127.16382 c 0,1.77688 -1.434415,3.21118 -3.211172,3.21118 -1.776893,0 -3.211181,-1.4343 -3.211181,-3.21118 0,-11.98836 -15.477982,-23.59152 -21.45073,-27.05959 -1.006111,-0.577916 -24.661911,-14.493032 -24.661911,-32.604146 0,-17.575909 22.199951,-31.14843 24.512039,-32.518562 0.06429,-0.04286 0.128441,-0.06416 0.149872,-0.08559 0.02142,-0.02143 0.06429,-0.04286 0.08558,-0.04286 1.434426,-0.877663 21.365143,-13.05875 21.365143,-27.0167255 0,-1.7768898 1.434296,-3.2111812 3.211182,-3.2111812 1.776764,0 3.211178,1.4342909 3.211178,3.2111812 0,17.5544815 -22.199948,31.1484315 -24.512036,32.5185665 -0.04285,0.02143 -0.10701,0.06415 -0.149864,0.08559 0,0 -0.04286,0.02143 -0.08559,0.04286 -1.434425,0.877663 -21.365143,13.037453 -21.365143,27.016724 0,11.988357 15.477982,23.591522 21.45073,27.059585 1.006103,0.577925 24.661903,14.493038 24.661903,32.604148 z"
     fill="#00ffc1"
     id="path3"
     style="stroke:#384b7d;stroke-opacity:1;stroke-width:0.73643555;stroke-dasharray:none;fill:#415e9a;fill-opacity:1" />
  <path
     d="m 98.487289,130.08832 c -0.404785,0.17906 -0.857231,0.28604 -1.345443,0.28604 -1.774048,0 -3.202835,-1.42902 -3.202835,-3.21498 0,-11.9896 -15.478409,-23.58678 -21.455407,-27.05116 -1.000175,-0.583707 -24.65831,-14.502293 -24.65831,-32.611974 0,-17.574249 22.193665,-31.147503 24.503525,-32.516628 0.07143,-0.03547 0.130951,-0.0593 0.154785,-0.08314 0.02377,-0.02383 0.05952,-0.04767 0.08336,-0.04767 C 74.0076,33.97966 93.939012,21.79937 93.939012,7.8331108 c 0,-1.7743425 1.428787,-3.2033505 3.202835,-3.2033505 0.488212,0 0.940658,0.1075535 1.345443,0.2860341 -1.107299,0.4999785 -1.869323,1.6191163 -1.869323,2.9173164 0,13.9662592 -19.931412,26.1465492 -21.372048,27.0156972 -0.02384,0 -0.05959,0.02384 -0.08336,0.04767 -0.02383,0.02384 -0.08335,0.04767 -0.154785,0.08314 -2.30986,1.369125 -24.503528,14.942379 -24.503528,32.516628 0,18.109681 23.658138,32.028267 24.658313,32.611974 5.976998,3.46438 21.455407,15.06156 21.455407,27.05116 0,1.30983 0.762024,2.41733 1.869323,2.92894 z"
     fill="#ffffff"
     id="path4"
     style="opacity:0.5;stroke:#384b7d;stroke-opacity:1;stroke-width:0.73643555;stroke-dasharray:none;fill:#f0f3f9;fill-opacity:1" />
  <g
     id="g5"
     style="stroke:#384b7d;stroke-opacity:1;stroke-width:0.73643555;stroke-dasharray:none">
    <path
       d="m 79.498596,47.448601 2.382271,2.382271 -3.264397,3.264347 -2.382271,-2.382271 c -0.901428,-0.901428 -0.90142,-2.36293 1.6e-5,-3.264355 l 7e-6,-4e-6 c 0.901436,-0.901424 2.362946,-0.901416 3.264374,1.2e-5 z"
       fill="#76819f"
       id="path5"
       style="stroke:#384b7d;stroke-opacity:1;stroke-width:0.73643555;stroke-dasharray:none" />
  </g>
  <g
     id="g6"
     style="stroke:#384b7d;stroke-opacity:1;stroke-width:0.73643555;stroke-dasharray:none">
    <path
       d="m 108.349,77.749 h 3.949 v 7.578 h -3.949 z"
       fill="#76819f"
       transform="matrix(0.707,-0.707,0.707,0.707,-25.343,101.892)"
       id="path6"
       style="stroke:#384b7d;stroke-opacity:1;stroke-width:0.73654677;stroke-dasharray:none" />
  </g>
  <g
     id="g7"
     style="stroke:#384b7d;stroke-opacity:1;stroke-width:0.73643555;stroke-dasharray:none">
    <path
       d="m 108.35,77.747 h 3.949 v 7.575 h -3.949 z"
       fill="#76819f"
       transform="matrix(0.707,-0.707,0.707,0.707,-25.341,101.892)"
       id="path7"
       style="stroke:#384b7d;stroke-opacity:1;stroke-width:0.73654677;stroke-dasharray:none" />
  </g>
  <g
     opacity="0.1"
     id="g8"
     style="stroke:#384b7d;stroke-opacity:1;stroke-width:0.73643555;stroke-dasharray:none">
    <path
       d="m 109.04192,77.460571 2.61435,2.614357 c -0.41972,0.501869 -0.86231,0.990067 -1.33227,1.460022 -0.46994,0.469925 -0.95814,0.912506 -1.46005,1.332253 l -2.61435,-2.61435 z"
       id="path8"
       style="stroke:#384b7d;stroke-opacity:1;stroke-width:0.73643555;stroke-dasharray:none" />
  </g>
  <g
     id="g9"
     style="stroke:#384b7d;stroke-opacity:1;stroke-width:0.73643555;stroke-dasharray:none">
    <path
       d="m 119.27961,83.055038 10.64172,10.641716 c 2.05366,2.053673 2.05365,5.383324 -3e-5,7.436986 l -0.002,0.002 c -2.05369,2.05367 -5.38336,2.05365 -7.43703,-2e-5 L 111.84059,90.493942 c -2.05367,-2.053673 -2.05366,-5.383323 3e-5,-7.436981 l 0.002,-0.0019 c 2.05369,-2.053666 5.38337,-2.05365 7.43704,2.2e-5 z"
       fill="#76819f"
       id="path9"
       style="stroke:#384b7d;stroke-opacity:1;stroke-width:0.73643555;stroke-dasharray:none" />
  </g>
  <g
     opacity="0.2"
     id="g10"
     style="stroke:#384b7d;stroke-width:0.736436;stroke-dasharray:none;stroke-opacity:1"
     sodipodi:insensitive="true">
    <path
       d="m 121.87531,85.648857 c -2.0547,-2.054626 -5.39057,-2.054634 -7.43318,-2.3e-5 h -0.0121 c -2.05464,2.054688 -2.05465,5.390526 -2e-5,7.433129 l -2.58644,-2.586503 c -2.0547,-2.054702 -2.05468,-5.390472 3e-5,-7.433059 v -0.01209 c 2.05464,-2.054687 5.37841,-2.05468 7.43311,2.3e-5 z"
       fill="#ffffff"
       id="path10"
       style="stroke:#384b7d;stroke-width:0.736436;stroke-dasharray:none;stroke-opacity:1" />
  </g>
  <g
     opacity="0.1"
     id="g11"
     style="display:inline;stroke:#384b7d;stroke-width:0.736436;stroke-dasharray:none;stroke-opacity:1">
    <path
       d="m 119.85385,98.493729 c 2.0547,2.054631 5.39057,2.054631 7.43318,2.3e-5 h 0.0121 c 2.05465,-2.054688 2.05466,-5.390526 3e-5,-7.433129 l 2.58643,2.586502 c 2.0547,2.054703 2.05469,5.390473 -3e-5,7.433055 v 0.0121 c -2.05464,2.05468 -5.3784,2.05467 -7.43311,-4e-5 z"
       id="path11"
       style="stroke:#384b7d;stroke-width:0.736436;stroke-dasharray:none;stroke-opacity:1" />
  </g>
  <path
     d="m 65.180679,57.796794 h 19.93803 c 0.450711,0 0.815422,-0.192959 0.815422,-0.431419 0,-0.23846 -0.364711,-0.431419 -0.815422,-0.431419 h -19.93803 c -0.450711,0 -0.815422,0.192959 -0.815422,0.431419 0,0.23846 0.364711,0.431419 0.815422,0.431419 z"
     id="path25-0-6-6"
     style="display:inline;fill:#ef7627;fill-opacity:1;stroke:#ef7627;stroke-width:0.873728;stroke-dasharray:none;stroke-opacity:1" />
  <g
     id="g12"
     style="display:inline;stroke:#384b7d;stroke-width:0.736436;stroke-dasharray:none;stroke-opacity:1">
    <path
       d="m 78.253593,49.464531 c -8.550346,8.55022 -8.550377,22.402199 -9.9e-5,30.952476 8.545708,8.545708 22.397756,8.545754 30.948096,-0.0045 8.5458,-8.545685 8.54586,-22.397632 1.5e-4,-30.943344 -8.55027,-8.550274 -22.40234,-8.55035 -30.948147,-0.0047 z m 28.091817,28.091827 c -6.971669,6.971573 -18.268674,6.971535 -25.235715,0.0045 -6.971634,-6.971641 -6.971588,-18.268562 7.7e-5,-25.240131 6.967132,-6.967026 18.264129,-6.966991 25.235768,0.0047 6.96704,6.967045 6.967,18.26397 -1.3e-4,25.230995 z"
       fill="#76819f"
       id="path12"
       style="stroke:#384b7d;stroke-width:0.736436;stroke-dasharray:none;stroke-opacity:1" />
  </g>
  <g
     opacity="0.2"
     id="g13"
     style="display:inline;stroke:#384b7d;stroke-width:0.736436;stroke-dasharray:none;stroke-opacity:1">
    <path
       d="m 94.838715,43.081558 c -5.219643,0.264591 -10.37082,2.395287 -14.363106,6.38752 -8.545807,8.545681 -8.545868,22.397629 -1.3e-4,30.943367 3.992256,3.992264 9.14341,6.122993 14.36303,6.387642 -5.967888,0.301102 -12.031571,-1.829628 -16.585015,-6.38308 -8.550277,-8.550277 -8.550247,-22.402256 9.9e-5,-30.952476 4.553513,-4.553444 10.617211,-6.684139 16.585122,-6.382973 z"
       fill="#ffffff"
       id="path13"
       style="stroke:#384b7d;stroke-width:0.736436;stroke-dasharray:none;stroke-opacity:1" />
  </g>
  <g
     id="g16"
     style="stroke:#a30262;stroke-opacity:1;stroke-width:0.73643555;stroke-dasharray:none;opacity:0.551">
    <path
       d="m 10.246936,25.26005 6.471474,5.206703 -2.672073,3.305243 -6.4714755,-5.206704 z"
       fill="#f3fcff"
       id="path15"
       style="stroke:#a30262;stroke-opacity:1;stroke-width:0.73643555;stroke-dasharray:none" />
  </g>
  <g
     id="g17"
     style="stroke:#730145;stroke-opacity:1;stroke-width:0.73643555;stroke-dasharray:none;opacity:0.551">
    <path
       d="m 11.003415,21.768724 -3e-6,-2e-6 C 10.312057,21.212486 9.2994995,21.320799 8.7418022,22.010647 L 3.81814,28.101007 c -0.5576975,0.68985 -0.4493468,1.700001 0.2420084,2.256239 l 2.4e-6,2e-6 c 0.6913548,0.556238 1.7039123,0.447926 2.26161,-0.241922 l 4.9236622,-6.090361 c 0.557698,-0.68985 0.449347,-1.700002 -0.242008,-2.256241 z"
       fill="#f3fcff"
       id="path16"
       style="stroke:#730145;stroke-opacity:1;stroke-width:0.73643555;stroke-dasharray:none" />
  </g>
  <g
     id="g18"
     style="stroke:#730145;stroke-opacity:1;stroke-width:0.73643555;stroke-dasharray:none;opacity:0.551">
    <path
       d="m 18.728756,27.980041 23.259586,18.71378 c 0.857357,0.689796 0.991722,1.942493 0.300118,2.797981 l -4.18824,5.180676 c -0.691605,0.855488 -1.947285,0.989807 -2.804638,0.300011 L 12.035993,36.258709 Z"
       fill="#f3fcff"
       id="path17"
       style="stroke:#730145;stroke-opacity:1;stroke-width:0.73643555;stroke-dasharray:none" />
  </g>
  <path
     d="m 40.113026,52.189018 -2.009449,2.4856 c -0.688568,0.85173 -1.947525,0.98645 -2.809838,0.292667 L 12.037213,36.255966 14.04683,33.770157 37.303356,52.481472 c 0.862313,0.693783 2.121098,0.559277 2.80967,-0.292454 z"
     fill="#d4f4ff"
     id="path18"
     style="stroke:#730145;stroke-width:0.736436;stroke-dasharray:none;stroke-opacity:1;fill:#e9cede;fill-opacity:1;opacity:0.551" />
  <path
     d="m 20.841501,43.343285 14.454066,11.629192 c 0.857372,0.689808 2.112999,0.555546 2.804695,-0.300049 l 4.188156,-5.180576 c 0.691696,-0.855595 0.557285,-2.108231 -0.300087,-2.798039 L 27.534264,35.064621 Z"
     fill="#00c5ea"
     id="path19"
     style="stroke:#730145;stroke-width:0.736436;stroke-dasharray:none;stroke-opacity:1;fill:#b55690;fill-opacity:1;opacity:0.551" />
  <path
     d="m 40.113026,52.189018 -2.009449,2.4856 c -0.688568,0.85173 -1.947525,0.98645 -2.809838,0.292667 l -14.450422,-11.626259 2.009619,-2.485813 14.45042,11.626259 c 0.862313,0.693783 2.121098,0.559277 2.80967,-0.292454 z"
     fill="#52eef8"
     id="path20"
     style="stroke:#730145;stroke-width:0.736436;stroke-dasharray:none;stroke-opacity:1;fill:#d162a4;fill-opacity:1;opacity:0.551" />
  <g
     id="g22"
     style="stroke:#730145;stroke-opacity:1;stroke-width:0.73643555;stroke-dasharray:none;opacity:0.90878378">
    <path
       d="m 42.531685,49.203697 c 1.596744,1.28468 1.846756,3.6152 0.558689,5.208481 -1.288067,1.593285 -3.624138,1.843136 -5.220882,0.558456 z"
       fill="#f3fcff"
       id="path21"
       style="stroke:#730145;stroke-opacity:1;stroke-width:0.73643555;stroke-dasharray:none" />
  </g>
  <path
     d="m 67.980301,84.841797 h 12.225586 c 0.276367,0 0.5,-0.223633 0.5,-0.5 0,-0.276367 -0.223633,-0.5 -0.5,-0.5 H 67.980301 c -0.276367,0 -0.5,0.223633 -0.5,0.5 0,0.276367 0.223633,0.5 0.5,0.5 z"
     id="path25"
     style="fill:#384b7d;stroke:#a30262;stroke-opacity:1;stroke-width:0.73643555;stroke-dasharray:none" />
  <path
     d="m 60.120926,9.1171875 h 27.944336 c 0.276367,0 0.5,-0.2236328 0.5,-0.5 0,-0.2763672 -0.223633,-0.5 -0.5,-0.5 H 60.120926 c -0.276367,0 -0.5,0.2236328 -0.5,0.5 0,0.2763672 0.223633,0.5 0.5,0.5 z"
     id="path26"
     style="fill:#384b7d;stroke:#384b7d;stroke-opacity:1;stroke-width:0.73643555;stroke-dasharray:none" />
  <path
     d="m 85.946121,15.353516 c 0,-0.276368 -0.223633,-0.5 -0.5,-0.5 H 62.741043 c -0.276367,0 -0.5,0.223632 -0.5,0.5 0,0.276367 0.223633,0.5 0.5,0.5 h 22.705078 c 0.276367,0 0.5,-0.223633 0.5,-0.5 z"
     id="path27"
     style="fill:#7eb2de;stroke:#7eb2de;stroke-opacity:1;stroke-width:0.73643555;stroke-dasharray:none;fill-opacity:1" />
  <path
     d="m 67.980301,21.59082 c -0.276367,0 -0.5,0.223633 -0.5,0.5 0,0.276367 0.223633,0.5 0.5,0.5 h 12.225586 c 0.276367,0 0.5,-0.223633 0.5,-0.5 0,-0.276367 -0.223633,-0.5 -0.5,-0.5 z"
     id="path28"
     style="fill:#384b7d;stroke:#384b7d;stroke-opacity:1;stroke-width:0.73643555;stroke-dasharray:none" />
  <path
     d="m 28.55098,44.50898 c -0.06448,0.0789 -0.08092,0.20959 -0.03677,0.292195 0.04414,0.08261 0.132039,0.08559 0.196507,0.0068 l 2.852095,-3.490326 c 0.06448,-0.07891 0.08092,-0.20959 0.03677,-0.292194 -0.04414,-0.08261 -0.132038,-0.0856 -0.196507,-0.0068 z"
     id="path28-7"
     style="fill:#d66dae;fill-opacity:1;stroke:#8e2867;stroke-width:0.250098;stroke-dasharray:none;stroke-opacity:1" />
  <path
     d="m 29.804046,45.547393 c -0.06448,0.0789 -0.08092,0.20959 -0.03677,0.292195 0.04414,0.08261 0.132039,0.08559 0.196507,0.0068 l 2.852095,-3.490326 c 0.06448,-0.07891 0.08092,-0.20959 0.03677,-0.292194 -0.04414,-0.08261 -0.132038,-0.0856 -0.196507,-0.0068 z"
     id="path28-7-9"
     style="fill:#d66dae;fill-opacity:1;stroke:#8e2867;stroke-width:0.250098;stroke-dasharray:none;stroke-opacity:1" />
  <path
     d="m 31.119637,46.623895 c -0.06448,0.0789 -0.08092,0.20959 -0.03677,0.292195 0.04414,0.08261 0.132039,0.08559 0.196507,0.0068 l 2.852095,-3.490326 c 0.06448,-0.07891 0.08092,-0.20959 0.03677,-0.292194 -0.04414,-0.08261 -0.132038,-0.0856 -0.196507,-0.0068 z"
     id="path28-7-9-2"
     style="fill:#d66dae;fill-opacity:1;stroke:#8e2867;stroke-width:0.250098;stroke-dasharray:none;stroke-opacity:1" />
  <path
     d="m 32.66895,47.825222 c -0.06448,0.0789 -0.08092,0.20959 -0.03677,0.292195 0.04414,0.08261 0.132039,0.08559 0.196507,0.0068 l 2.852095,-3.490326 c 0.06448,-0.07891 0.08092,-0.20959 0.03677,-0.292194 -0.04414,-0.08261 -0.132038,-0.0856 -0.196507,-0.0068 z"
     id="path28-7-0"
     style="fill:#d66dae;fill-opacity:1;stroke:#8e2867;stroke-width:0.250098;stroke-dasharray:none;stroke-opacity:1" />
  <path
     d="m 33.922016,48.863635 c -0.06448,0.0789 -0.08092,0.20959 -0.03677,0.292195 0.04414,0.08261 0.132039,0.08559 0.196507,0.0068 l 2.852095,-3.490326 c 0.06448,-0.07891 0.08092,-0.20959 0.03677,-0.292194 -0.04414,-0.08261 -0.132038,-0.0856 -0.196507,-0.0068 z"
     id="path28-7-9-23"
     style="fill:#d66dae;fill-opacity:1;stroke:#8e2867;stroke-width:0.250098;stroke-dasharray:none;stroke-opacity:1" />
  <path
     d="m 35.237607,49.940137 c -0.06448,0.0789 -0.08092,0.20959 -0.03677,0.292195 0.04414,0.08261 0.132039,0.08559 0.196507,0.0068 l 2.852095,-3.490326 c 0.06448,-0.07891 0.08092,-0.20959 0.03677,-0.292194 -0.04414,-0.08261 -0.132038,-0.0856 -0.196507,-0.0068 z"
     id="path28-7-9-2-7"
     style="fill:#d66dae;fill-opacity:1;stroke:#8e2867;stroke-width:0.250098;stroke-dasharray:none;stroke-opacity:1" />
  <path
     d="M 88.065262,125.88281 H 60.120926 c -0.276367,0 -0.5,0.22364 -0.5,0.5 0,0.27637 0.223633,0.5 0.5,0.5 h 27.944336 c 0.276367,0 0.5,-0.22363 0.5,-0.5 0,-0.27636 -0.223633,-0.5 -0.5,-0.5 z"
     id="path29"
     style="fill:#384b7d;stroke:#384b7d;stroke-opacity:1;stroke-width:0.73643555;stroke-dasharray:none" />
  <path
     d="m 45.682964,128.15257 h -15.03145 c -0.14866,0 -0.268954,0.25848 -0.268954,0.57789 0,0.31942 0.120294,0.57789 0.268954,0.57789 h 15.03145 c 0.148659,0 0.268953,-0.25847 0.268953,-0.57789 0,-0.31941 -0.120294,-0.57789 -0.268953,-0.57789 z"
     id="path29-5-2"
     style="fill:#000000;fill-opacity:1;stroke:#8c8c8c;stroke-width:0.580663;stroke-dasharray:none;stroke-opacity:1;opacity:1" />
  <path
     d="m 112.77464,128.05537 h -7.86796 c -0.0778,0 -0.14078,0.289 -0.14078,0.64612 0,0.35713 0.063,0.64612 0.14078,0.64612 h 7.86796 c 0.0778,0 0.14078,-0.28899 0.14078,-0.64612 0,-0.35712 -0.063,-0.64612 -0.14078,-0.64612 z"
     id="path29-5-28"
     style="fill:#000000;fill-opacity:1;stroke:#8c8c8c;stroke-width:0.444209;stroke-dasharray:none;stroke-opacity:1;opacity:1" />
  <path
     d="m 20.382102,127.90601 h -7.86796 c -0.0778,0 -0.14078,0.289 -0.14078,0.64612 0,0.35713 0.063,0.64612 0.14078,0.64612 h 7.86796 c 0.0778,0 0.14078,-0.28899 0.14078,-0.64612 0,-0.35712 -0.063,-0.64612 -0.14078,-0.64612 z"
     id="path29-5-28-7"
     style="fill:#000000;fill-opacity:1;stroke:#8c8c8c;stroke-width:0.444209;stroke-dasharray:none;stroke-opacity:1;opacity:1" />
  <path
     d="M 130.27554,128.08485 H 117.1819 c -0.12948,0 -0.23427,0.2655 -0.23427,0.59359 0,0.3281 0.10481,0.59359 0.23427,0.59359 h 13.09364 c 0.12947,0 0.23428,-0.26549 0.23428,-0.59359 0,-0.32809 -0.10481,-0.59359 -0.23428,-0.59359 z"
     id="path29-5-28-9"
     style="fill:#000000;fill-opacity:1;stroke:#8c8c8c;stroke-width:0.549257;stroke-dasharray:none;stroke-opacity:1;opacity:1" />
  <path
     d="m 62.741043,120.14648 h 22.705078 c 0.276367,0 0.5,-0.22363 0.5,-0.5 0,-0.27636 -0.223633,-0.5 -0.5,-0.5 H 62.741043 c -0.276367,0 -0.5,0.22364 -0.5,0.5 0,0.27637 0.223633,0.5 0.5,0.5 z"
     id="path30"
     style="fill:#7eb2de;stroke:#7eb2de;stroke-opacity:1;stroke-width:0.73643555;stroke-dasharray:none;fill-opacity:1" />
  <path
     d="m 67.980301,113.41016 h 12.225586 c 0.276367,0 0.5,-0.22364 0.5,-0.5 0,-0.27637 -0.223633,-0.5 -0.5,-0.5 H 67.980301 c -0.276367,0 -0.5,0.22363 -0.5,0.5 0,0.27636 0.223633,0.5 0.5,0.5 z"
     id="path31"
     style="fill:#384b7d;stroke:#384b7d;stroke-opacity:1;stroke-width:0.73643555;stroke-dasharray:none" />
  <path
     d="m 124.6678,96.561523 -0.0732,0.07324 c -0.19531,0.195312 -0.19531,0.511718 0,0.707031 0.0977,0.09766 0.22558,0.146484 0.35351,0.146484 0.12793,0 0.25586,-0.04883 0.35352,-0.146484 l 0.0732,-0.07324 c 0.19531,-0.195313 0.19531,-0.511719 0,-0.707032 -0.19531,-0.195312 -0.51172,-0.195312 -0.70703,10e-7 z"
     id="path34"
     style="fill:#384b7d;stroke:#384b7d;stroke-opacity:1;stroke-width:0.73643555;stroke-dasharray:none" />
  <g
     id="g39"
     style="opacity:0.3;stroke:#384b7d;stroke-opacity:1;stroke-width:0.73643555;stroke-dasharray:none">
    <path
       d="m 102.67159,79.755615 c -0.13001,0.08008 -0.26001,0.159912 -0.39002,0.23999 -2.659973,1.570069 -5.70996,2.399903 -8.809997,2.399903 -1.179993,0 -2.349976,-0.109864 -3.5,-0.349854 L 84.261612,50.355469 c 2.75,-1.729981 5.919983,-2.639893 9.179993,-2.639893 0.609985,0 1.22998,0.03003 1.849975,0.100098 0.150025,0.01001 0.299988,0.03003 0.450012,0.05005 z"
       fill="#d4f4ff"
       id="path39"
       style="stroke:#384b7d;stroke-opacity:1;stroke-width:0.73643555;stroke-dasharray:none" />
  </g>
  <path
     d="m 106.95604,76.490266 c -0.14997,0.180176 -0.31,0.350098 -0.46996,0.52002 -0.13002,0.170166 -0.26002,0.290039 -0.39003,0.420166 -0.30999,0.309814 -0.64001,0.619873 -0.96997,0.899902 -0.14001,0.130127 -0.29004,0.23999 -0.42999,0.360107 -0.52002,0.419922 -1.08002,0.819825 -1.66003,1.179932 -0.13001,0.08008 -0.26001,0.159912 -0.39002,0.23999 -2.659974,1.570069 -5.709962,2.399903 -8.809992,2.399903 -1.18,0 -2.34998,-0.109864 -3.5,-0.349854 -0.03,-0.01001 -0.06,-0.01001 -0.09,-0.02002 -3.28003,-0.679932 -6.28003,-2.310059 -8.68,-4.709961 -6.76,-6.76001 -6.76,-17.77002 0,-24.53003 0.90998,-0.910156 1.90998,-1.709961 2.97999,-2.379882 0.03,-0.02002 0.05,-0.03027 0.08,-0.05029 2.75,-1.729981 5.91998,-2.639893 9.17999,-2.639893 0.60998,0 1.22998,0.03003 1.84997,0.100098 0.15003,0.01001 0.29999,0.03003 0.45002,0.05005 0.66998,0.07983 1.34002,0.209961 2.01001,0.379883 0.17999,0.05005 0.35998,0.09009 0.53997,0.149903 0.59003,0.170166 1.179998,0.380127 1.780032,0.620117 0.20996,0.08984 0.41998,0.179931 0.63,0.270019 1.87,0.859864 3.56,2.03003 5.02997,3.51001 6.48999,6.479981 6.82001,16.719971 0.85999,23.579834 z"
     fill="#ffffff"
     id="path38"
     style="opacity:0.5;stroke:#384b7d;stroke-width:0.736436;stroke-dasharray:none;stroke-opacity:1" />
  <g
     id="g40"
     style="opacity:0.3;stroke:#384b7d;stroke-width:0.736436;stroke-dasharray:none;stroke-opacity:1"
     transform="translate(0.36447318,0.11477774)">
    <path
       d="m 106.59157,76.375488 c -0.14997,0.180176 -0.31,0.350098 -0.46997,0.52002 -0.13001,0.170166 -0.26001,0.290039 -0.39002,0.420166 -0.30999,0.309814 -0.64001,0.619873 -0.96997,0.899902 L 98.29158,48.395508 c 0.590027,0.170166 1.179993,0.380127 1.78003,0.620117 0.20996,0.08984 0.41998,0.179932 0.63,0.270019 z"
       fill="#d4f4ff"
       id="path40"
       style="stroke:#384b7d;stroke-width:0.736436;stroke-dasharray:none;stroke-opacity:1" />
  </g>
</svg>
