<?xml version="1.0" encoding="UTF-8" standalone="no"?>
<svg
   id="Layer_1"
   enable-background="new 0 0 136 136"
   height="512"
   viewBox="0 0 136 136"
   width="512"
   version="1.1"
   sodipodi:docname="points-configuration.svg"
   inkscape:version="1.3.2 (091e20ef0f, 2023-11-25)"
   xmlns:inkscape="http://www.inkscape.org/namespaces/inkscape"
   xmlns:sodipodi="http://sodipodi.sourceforge.net/DTD/sodipodi-0.dtd"
   xmlns="http://www.w3.org/2000/svg"
   xmlns:svg="http://www.w3.org/2000/svg">
  <defs
     id="defs37" />
  <sodipodi:namedview
     id="namedview37"
     pagecolor="#ffffff"
     bordercolor="#000000"
     borderopacity="0.25"
     inkscape:showpageshadow="2"
     inkscape:pageopacity="0.0"
     inkscape:pagecheckerboard="0"
     inkscape:deskcolor="#d1d1d1"
     inkscape:zoom="0.85742188"
     inkscape:cx="-533.57631"
     inkscape:cy="202.93394"
     inkscape:window-width="2752"
     inkscape:window-height="1124"
     inkscape:window-x="0"
     inkscape:window-y="0"
     inkscape:window-maximized="1"
     inkscape:current-layer="Layer_1" />
  <path
     d="m 112.02696,123.5243 c 0,1.65735 -1.34355,3.00089 -3.0009,3.00089 H 31.690163 c -4.929514,0 -9.211863,-3.93966 -9.211863,-8.83118 v -0.34246 c 0,-0.11431 0.01905,-0.22862 0.0381,-0.34269 0,-0.11408 0,-0.20933 0.01905,-0.30459 0.01893,-0.13313 0.03798,-0.26625 0.05704,-0.38056 0.0381,-0.22838 0.07609,-0.43772 0.133242,-0.62823 0.05704,-0.26625 0.133243,-0.53297 0.228384,-0.79922 0.07609,-0.24743 0.171345,-0.51392 0.285536,-0.7423 0.209331,-0.47582 0.456766,-0.91353 0.742185,-1.33243 0.114191,-0.17122 0.228382,-0.32341 0.34269,-0.47581 0.228384,-0.30436 0.456766,-0.57085 0.723135,-0.83733 1.598795,-1.57986 3.787599,-2.56936 6.22372,-2.56936 h 73.142528 7.6131 z"
     fill="#52eef8"
     id="path1"
     style="fill:#d162a4;fill-opacity:1" />
  <path
     d="m 31.305105,112.18095 c -1.501421,0 -2.850275,0.6098 -3.835689,1.58351 -0.164158,0.16415 -0.304898,0.32831 -0.445637,0.51612 -0.07049,0.0937 -0.140858,0.18757 -0.211227,0.29319 -0.175868,0.25806 -0.328316,0.52783 -0.457346,0.82102 -0.07037,0.14074 -0.129149,0.3049 -0.175984,0.45758 -0.05866,0.16393 -0.105614,0.32832 -0.140741,0.49248 -0.03524,0.11732 -0.05866,0.24658 -0.0822,0.38709 -0.01171,0.0705 -0.02342,0.15268 -0.03513,0.23464 -0.01171,0.0585 -0.01171,0.11756 -0.01171,0.18782 -0.01171,0.0703 -0.02353,0.1405 -0.02353,0.21122 v 0.21076 c 0,3.01478 2.639284,5.44272 5.677252,5.44272 h 80.463807 v -10.83815 z"
     fill="#ffffff"
     id="path2" />
  <path
     d="M 112.03003,12.474365 V 108.93433 H 31.270019 c -2.429992,0 -4.619995,0.98999 -6.220031,2.57006 -0.269959,0.27002 -0.5,0.54004 -0.729981,0.83985 -0.130005,0.15014 -0.23999,0.31006 -0.340027,0.47998 -0.279968,0.42016 -0.529968,0.8501 -0.73999,1.33008 -0.109985,0.25 -0.209961,0.48999 -0.289978,0.73999 -0.09003,0.27002 -0.169983,0.53003 -0.220032,0.80005 -0.06,0.20996 -0.09998,0.3999 -0.139953,0.62988 -0.02002,0.11011 -0.04004,0.25 -0.05005,0.38013 -0.01996,0.10009 -0.01996,0.18994 -0.01996,0.30004 -0.02002,0.12012 -0.04004,0.22998 -0.04004,0.3501 V 17.084473 c 0,-4.200196 3.410035,-7.6101077 7.610047,-7.6101077 h 78.940006 c 1.64996,-1e-7 3,1.3400877 3,2.9999997 z"
     fill="#00c5ea"
     id="path3"
     style="fill:#d87ab2;fill-opacity:1" />
  <path
     d="M 112.01996,12.478029 V 108.94197 H 31.265713 c -2.430817,0 -4.621418,0.99034 -6.211893,2.56589 -0.270071,0.26998 -0.495177,0.53996 -0.735209,0.84016 -0.120062,0.15001 -0.240122,0.3002 -0.330147,0.48007 -0.285089,0.40515 -0.54014,0.85535 -0.750225,1.32059 -0.120062,0.25496 -0.210085,0.49508 -0.285089,0.75022 -0.09002,0.26998 -0.165028,0.52494 -0.225014,0.7951 -0.06008,0.21009 -0.09002,0.40515 -0.13508,0.63026 -0.01502,0.11996 -0.04497,0.23994 -0.05999,0.37511 -0.01502,0.10495 -0.01502,0.19506 -0.01502,0.31504 -0.01502,0.10513 -0.04506,0.2251 -0.04506,0.33005 v -12.70878 c 1.125339,-0.52513 2.35572,-0.81031 3.676126,-0.81031 22.296696,0 42.477795,-9.047765 57.092182,-23.662152 C 97.85569,65.54883 106.90346,45.367823 106.90346,23.071127 V 9.4771252 h 2.1156 c 1.65055,0 3.0009,1.3502608 3.0009,3.0009038 z"
     id="path4"
     style="opacity:0.05" />
  <g
     id="g5"
     style="opacity:0.5">
    <path
       d="M 84.73999,108.93433 H 54.609985 L 32.309998,9.4743652 h 30.130004 z"
       fill="#ffffff"
       id="path5" />
  </g>
  <g
     id="g6"
     style="opacity:0.5">
    <path
       d="M 100.32001,108.93433 H 90.330017 L 68.030029,9.4743652 h 9.989991 z"
       fill="#ffffff"
       id="path6" />
  </g>
  <path
     d="M 29,9.5612793 C 25.313904,10.091797 22.478271,13.254395 22.478271,17.087402 V 117.35156 c 0,-0.11426 0.0191,-0.22851 0.03815,-0.34277 0,-0.11401 0,-0.20923 0.01904,-0.30444 0.01892,-0.13331 0.03796,-0.26636 0.05701,-0.38062 0.03815,-0.22852 0.07611,-0.4187 0.13324,-0.62817 0.05707,-0.26636 0.13324,-0.53296 0.228394,-0.79932 0.07611,-0.24731 0.171386,-0.49487 0.285522,-0.74243 0.209351,-0.47559 0.456787,-0.91333 0.742188,-1.33228 0.09527,-0.17114 0.209472,-0.32348 0.342712,-0.47583 0.228394,-0.30444 0.456787,-0.5708 0.723144,-0.8374 C 26.12915,110.4397 27.48468,109.65088 29,109.24609 Z"
     fill="#52eef8"
     id="path7"
     style="fill:#d162a4;fill-opacity:1" />
  <path
     d="M 112.03003,82.134277 V 92.434326 L 95.539978,108.93433 H 85.23999 Z"
     fill="#ffff9a"
     id="path8"
     style="fill:#ff9a56;fill-opacity:1" />
  <path
     d="m 112.03003,82.134277 v 3.5 L 88.73999,108.93433 h -3.5 z"
     fill="#d4f4ff"
     id="path9"
     style="opacity:0.5" />
  <path
     d="M 112.03003,25.984375 V 36.284424 L 85.22998,9.4743652 h 10.300049 z"
     fill="#ffff9a"
     id="path10"
     style="fill:#ff9a56;fill-opacity:1" />
  <path
     d="m 112.03003,33.284424 v 3 L 85.22998,9.4743652 h 3 z"
     fill="#d4f4ff"
     id="path11"
     style="opacity:0.5" />
  <g
     id="g13">
    <path
       d="m 96.16217,47.893646 -0.812866,-2.389847 c -0.239242,-0.703384 -0.913528,-1.164882 -1.655807,-1.133278 l -2.369416,0.100872 c -0.740799,0.03154 -1.372551,0.546708 -1.552513,1.266011 l -0.155189,0.620281 -0.468849,1.837997 c -0.905564,0.312851 -1.746353,0.70755 -2.552895,1.19896 l -2.261551,-1.118916 c -0.669388,-0.331184 -1.477127,-0.179603 -1.980896,0.371735 l -1.600929,1.752094 c -0.502014,0.549416 -0.580956,1.364319 -0.193733,1.999886 l 1.312042,2.153522 c -0.420952,0.845776 -0.761261,1.727997 -0.9805,2.652275 l -2.397926,0.824551 c -0.701874,0.241344 -1.16098,0.916099 -1.127823,1.657574 l 0.10595,2.369083 c 0.03307,0.739399 0.547828,1.369301 1.265838,1.54895 l 2.456047,0.614521 c 0.307915,0.895363 0.717446,1.76677 1.20385,2.563149 l -1.11515,2.264534 c -0.328057,0.666183 -0.177964,1.468872 0.368644,1.971504 l 1.742028,1.601883 c 0.546417,0.502464 1.358505,0.584999 1.994835,0.202736 l 2.172981,-1.305359 c 0.830597,0.415634 1.718109,0.740867 2.647263,0.970344 l 0.820854,2.389794 c 0.240745,0.700912 0.913749,1.160057 1.654175,1.12854 l 2.370773,-0.100922 c 0.741981,-0.03159 1.37442,-0.548317 1.553291,-1.269104 l 0.610611,-2.460548 c 0.90036,-0.29773 1.761559,-0.702317 2.557831,-1.188752 l 2.27596,1.119355 c 0.66799,0.328537 1.47268,0.176414 1.97465,-0.373291 l 1.60614,-1.758896 c 0.50047,-0.548065 0.58024,-1.36026 0.19598,-1.995232 l -1.30725,-2.160141 c 0.30168,-0.624382 0.56311,-1.279663 0.77429,-1.960838 0.0686,-0.222061 0.13237,-0.454262 0.18586,-0.681583 l 0.0102,-0.0049 2.38974,-0.820782 c 0.70093,-0.240742 1.16009,-0.913769 1.12855,-1.654221 l -0.10097,-2.370796 c -0.0316,-0.741974 -0.54834,-1.374401 -1.26912,-1.553276 l -2.46056,-0.610638 c -0.0879,-0.259456 -0.18104,-0.503765 -0.27429,-0.748108 -0.25545,-0.631343 -0.56191,-1.237972 -0.91935,-1.81998 l 1.11568,-2.265541 c 0.32783,-0.665718 0.1782,-1.467823 -0.3676,-1.97057 l -1.74559,-1.607857 c -0.54773,-0.504524 -1.36292,-0.586494 -2.00013,-0.201114 l -2.165699,1.309783 z m -2.737266,17.868523 c -2.95929,0.129883 -5.478584,-2.175663 -5.604317,-5.146874 -0.129906,-2.959301 2.179466,-5.470634 5.138779,-5.600471 2.971191,-0.125706 5.478653,2.175686 5.608513,5.13501 0.125724,2.97121 -2.17566,5.478615 -5.142975,5.612335 z"
       fill="#ffffff"
       id="path12" />
  </g>
  <g
     id="g15"
     style="fill:#fed2ec;fill-opacity:1">
    <path
       d="m 74.353394,38.669571 -1.909485,-3.941776 c -0.308686,-0.637223 -0.999787,-0.99545 -1.698418,-0.880356 l -4.010956,0.660774 c -0.88163,-0.982922 -1.872268,-1.848465 -2.931034,-2.607323 l 0.202503,-4.045999 c 0.03547,-0.708756 -0.40057,-1.356051 -1.070724,-1.589466 l -4.145409,-1.44385 c -0.670696,-0.233604 -1.415092,0.0033 -1.827362,0.581636 l -2.355099,3.303587 c -1.301204,-0.06083 -2.61515,0.0043 -3.916175,0.229069 l -2.730408,-3.005834 c -0.476685,-0.524769 -1.242062,-0.672871 -1.880085,-0.363797 l -3.947556,1.912276 c -0.637218,0.308681 -0.995437,0.999788 -0.880336,1.698425 l 0.660797,4.010975 c -0.982888,0.881561 -1.848442,1.872265 -2.607292,2.93103 l -4.043824,-0.202423 c -0.709774,-0.03553 -1.357772,0.401806 -1.590355,1.07333 l -1.436332,4.147015 c -0.232247,0.670559 0.0054,1.413963 0.583542,1.825466 l 3.30043,2.349106 c -0.06829,1.304832 -0.0032,2.618713 0.221626,3.919819 l -3.004795,2.7378 c -0.52338,0.476872 -0.670677,1.241238 -0.361992,1.878464 l 1.909477,3.941776 c 0.308686,0.637219 0.999783,0.995445 1.69841,0.880356 l 4.010983,-0.66074 c 0.881611,0.982876 1.875893,1.855938 2.938507,2.603706 l -0.188934,3.774956 c -0.04351,0.869415 0.491371,1.663437 1.313438,1.949761 l 3.888222,1.354248 c 0.671116,0.233749 1.415958,-0.0036 1.828052,-0.582612 l 2.347844,-3.298645 c 1.304824,0.06831 2.615127,-0.0043 3.916175,-0.229068 l 2.737809,3.004825 c 0.476875,0.523392 1.241241,0.670693 1.878459,0.362007 l 3.947548,-1.912269 c 0.638031,-0.309075 0.996254,-1.001473 0.879952,-1.700817 l -0.666176,-4.005791 c 0.982864,-0.881603 1.852058,-1.864796 2.607285,-2.93103 l 4.052192,0.199726 c 0.709343,0.03496 1.35669,-0.402291 1.589127,-1.073384 l 1.436653,-4.147876 c 0.232254,-0.670563 -0.0054,-1.413971 -0.583534,-1.825474 l -3.300423,-2.349106 c 0.06444,-1.293739 -0.0043,-2.615139 -0.229095,-3.916199 l 3.004783,-2.737842 c 0.523377,-0.476875 0.67067,-1.241234 0.361985,-1.878456 z m -17.05663,15.088108 c -4.003089,1.939178 -8.822887,0.269669 -10.764755,-3.738964 -1.939182,-4.00309 -0.261581,-8.820072 3.741509,-10.759251 4.00309,-1.939182 8.822887,-0.269672 10.762069,3.733418 1.941868,4.008636 0.264267,8.825618 -3.738823,10.764797 z"
       fill="#d4f4ff"
       id="path14"
       style="fill:#fed2ec;fill-opacity:1" />
  </g>
  <g
     id="g16">
    <path
       d="m 57.362934,61.466457 -1.059112,0.182759 c -1.137562,0.196171 -2.308136,0.264351 -3.480683,0.202881 l -1.076149,-0.05638 -2.813621,3.954632 -3.631657,-1.265045 0.242878,-4.854477 -0.883629,-0.621983 C 43.695645,58.329824 42.818024,57.55282 42.053757,56.69998 l -0.718014,-0.800515 -4.80505,0.791043 -1.673488,-3.45382 3.600196,-3.280155 -0.183807,-1.059376 c -0.192062,-1.112972 -0.258125,-2.285018 -0.195751,-3.483795 l 0.05611,-1.075115 -3.955734,-2.816357 1.257732,-3.633449 4.841583,0.242401 0.623074,-0.870129 c 0.705914,-0.98518 1.487007,-1.864219 2.321377,-2.612507 l 0.801079,-0.717651 -0.791539,-4.804976 3.460007,-1.676355 3.27327,3.602291 1.060875,-0.183651 c 1.104458,-0.190613 2.278873,-0.25917 3.489612,-0.202453 l 1.06781,0.04992 2.817994,-3.95268 3.632698,1.265297 -0.242409,4.843574 0.870129,0.623085 c 0.982887,0.704483 1.862503,1.485943 2.61444,2.323422 l 0.717804,0.799579 4.804009,-0.791294 1.672661,3.454495 -3.599365,3.27948 0.183807,1.059372 c 0.19397,1.121376 0.262108,2.29393 0.202919,3.485111 l -0.05373,1.072613 3.954163,2.813766 -1.259392,3.634808 -4.855583,-0.23922 -0.621376,0.877602 c -0.679352,0.959503 -1.459107,1.835785 -2.317047,2.605632 l -0.800869,0.718583 0.797435,4.800689 -3.459072,1.67614 z M 51.573296,36.738106 c -0.740365,0.168255 -1.46505,0.422783 -2.154046,0.756584 -2.407554,1.166187 -4.217445,3.199516 -5.096351,5.726238 -0.879734,2.527401 -0.721512,5.245537 0.445152,7.653004 2.043129,4.220585 6.661171,6.443123 11.229405,5.404964 0.740364,-0.168251 1.465049,-0.422783 2.154048,-0.756584 4.970723,-2.407997 7.056504,-8.411789 4.649098,-13.384163 -2.043427,-4.217575 -6.660008,-6.437992 -11.227306,-5.400043 z"
       fill="#ffffff"
       id="path15" />
  </g>
  <path
     d="m 83.98996,116.1787 v 8.84386 l -4.055718,-2.21328 -4.055717,2.21328 v -8.84386 z"
     fill="#ff4b3a"
     id="path17"
     style="fill:#ef7627;fill-opacity:1" />
  <path
     d="M 6.125,126.02539 H 4.75 c -0.2763672,0 -0.5,0.22363 -0.5,0.5 0,0.27637 0.2236328,0.5 0.5,0.5 h 1.375 c 0.2763672,0 0.5,-0.22363 0.5,-0.5 0,-0.27637 -0.2236328,-0.5 -0.5,-0.5 z"
     fill="#384b7d"
     id="path21"
     style="fill:#a30262;fill-opacity:1" />
  <path
     d="M 15.916504,126.02539 H 8.125 c -0.2763672,0 -0.5,0.22363 -0.5,0.5 0,0.27637 0.2236328,0.5 0.5,0.5 h 7.791504 c 0.276367,0 0.5,-0.22363 0.5,-0.5 0,-0.27637 -0.223633,-0.5 -0.5,-0.5 z"
     fill="#384b7d"
     id="path22"
     style="fill:#a30262;fill-opacity:1" />
  <path
     d="m 118.25,126.02539 h -6.78125 c 0.65125,-0.63623 1.05859,-1.52075 1.05859,-2.50098 v -0.49511 c 1.9e-4,-0.005 0.003,-0.01 0.003,-0.0147 -0.002,-8.1415 0,8.44888 0,-110.540041 0,-1.929687 -1.57031,-3.4999997 -3.5,-3.4999997 -24.12711,0 -53.764626,0 -78.940426,0 -4.359318,0 -8.111328,3.5757167 -8.111328,8.1132817 V 117.69434 c 0,3.59253 2.24884,6.78027 5.435424,8.33105 h -8.497436 c -0.276367,0 -0.5,0.22363 -0.5,0.5 0,0.27637 0.223633,0.5 0.5,0.5 H 118.25 c 0.27637,0 0.5,-0.22363 0.5,-0.5 0,-0.27637 -0.22363,-0.5 -0.5,-0.5 z m -34.759766,-1.8457 -3.316406,-1.8086 c -0.07422,-0.041 -0.157227,-0.0615 -0.239258,-0.0615 -0.08203,0 -0.165039,0.0205 -0.239258,0.0615 l -3.316406,1.8086 c 1.22e-4,-0.94533 0.001,-7.94853 9.77e-4,-7.50098 h 7.110351 c 0,0.21283 0,7.89352 0,7.50098 z M 38.15625,117.07617 H 26.414062 c 0.08923,-2.11407 2.119513,-4.3916 4.895997,-4.3916 h 80.217281 v 2.99414 H 84.014465 c -0.0085,-4.9e-4 -0.01563,-0.005 -0.02423,-0.005 h -8.110351 c -0.0086,0 -0.01575,0.004 -0.02423,0.005 H 72.875 c -0.276367,0 -0.5,0.22363 -0.5,0.5 0,0.27637 0.223633,0.5 0.5,0.5 h 2.503906 v 5.83594 H 31.560059 c -2.623047,0 -4.83899,-1.98877 -5.115052,-4.43848 H 38.15625 c 0.276367,0 0.5,-0.22363 0.5,-0.5 0,-0.27637 -0.223633,-0.5 -0.5,-0.5 z m 46.333984,-0.39746 h 27.037106 v 1.84277 H 87.875 c -0.276367,0 -0.5,0.22364 -0.5,0.5 0,0.27637 0.223633,0.5 0.5,0.5 h 23.65234 v 2.99317 H 84.490234 Z M 28.5,10.163086 V 108.8584 c -2.471233,0.77234 -4.398546,2.488 -5.508484,4.65576 -0.0034,0.007 -0.0082,0.0129 -0.01154,0.0195 0.0016,-108.2601075 -0.0047,-95.440344 0.0015,-96.480223 0.01629,-3.274823 2.32388,-6.157944 5.518494,-6.890381 z M 111.53027,92.227539 95.333008,108.43457 H 86.447266 L 111.53027,83.341797 Z m 0,1.414551 v 14.79248 H 96.746582 Z m 0,-81.167481 V 24.776856 L 96.736816,9.9746094 h 12.293454 c 1.37891,0 2.5,1.1210936 2.5,2.4999996 z M 95.323242,9.9746094 111.53027,26.191406 v 8.885743 L 86.437492,9.9746094 Z m -65.233398,0 H 85.023376 L 111.53027,36.491211 V 81.927734 L 85.033142,108.43457 H 31.270019 c -0.600097,0 -1.191772,0.0593 -1.770019,0.1709 V 10.004395 c 0.195007,-0.016114 0.390747,-0.029786 0.589844,-0.029786 z M 22.978516,117.69434 c 0,-4.0232 3.093204,-8.25489 8.292968,-8.25489 h 80.255856 v 2.24512 H 31.310059 c -3.279158,0 -5.919922,2.72109 -5.919922,5.67969 v 0.19018 c -3.66e-4,0.008 -0.0044,0.0139 -0.0044,0.0217 0,0.0107 0.0055,0.02 0.0062,0.0305 0.01917,3.20532 2.835327,5.90796 6.168152,5.90796 h 43.818847 v 1.50781 c 0,0.17676 0.09277,0.33984 0.245118,0.42969 0.151367,0.0908 0.34082,0.0947 0.49414,0.009 l 3.816406,-2.08203 3.816407,2.08203 c 0.154937,0.0856 0.344421,0.081 0.49414,-0.009 0.152344,-0.0898 0.245118,-0.25293 0.245118,-0.42969 v -1.50781 h 27.037105 v 0.01 c 0,1.37891 -1.12207,2.50098 -2.50097,2.50098 H 31.689941 c -4.722168,0 -8.711425,-3.81543 -8.711425,-8.33105 z"
     fill="#384b7d"
     id="path23"
     style="fill:#a30262;fill-opacity:1" />
  <path
     d="M 128.0625,126.02539 H 121.25 c -0.27637,0 -0.5,0.22363 -0.5,0.5 0,0.27637 0.22363,0.5 0.5,0.5 h 6.8125 c 0.27637,0 0.5,-0.22363 0.5,-0.5 0,-0.27637 -0.22363,-0.5 -0.5,-0.5 z"
     fill="#384b7d"
     id="path24"
     style="fill:#a30262;fill-opacity:1" />
  <path
     d="m 131.25,126.02539 h -1.1875 c -0.27637,0 -0.5,0.22363 -0.5,0.5 0,0.27637 0.22363,0.5 0.5,0.5 h 1.1875 c 0.27637,0 0.5,-0.22363 0.5,-0.5 0,-0.27637 -0.22363,-0.5 -0.5,-0.5 z"
     fill="#384b7d"
     id="path25"
     style="fill:#a30262;fill-opacity:1" />
  <path
     d="m 32.875977,17.908203 4.577148,-4.577148 c 0.195312,-0.195313 0.195312,-0.511719 0,-0.707032 -0.195313,-0.195312 -0.511719,-0.195312 -0.707031,0 l -4.577149,4.577149 c -0.195312,0.195312 -0.195312,0.511719 0,0.707031 0.195309,0.195307 0.511715,0.195318 0.707032,0 z"
     fill="#384b7d"
     id="path26"
     style="fill:#a30262;fill-opacity:1" />
  <path
     d="m 34.880859,18.885742 c 0.195309,0.195307 0.511715,0.195318 0.707032,0 l 2.843261,-2.842773 c 0.195313,-0.195313 0.195313,-0.511719 0,-0.707031 -0.195312,-0.195313 -0.511718,-0.195313 -0.707031,0 l -2.843262,2.842773 c -0.195312,0.195312 -0.195312,0.511719 0,0.707031 z"
     fill="#384b7d"
     id="path27"
     style="fill:#a30262;fill-opacity:1" />
  <path
     d="M 57.514648,54.208008 C 61.76123,52.150391 63.54248,47.021484 61.48584,42.775391 59.428711,38.530273 54.300781,36.75 50.055664,38.80957 c -4.253097,2.059906 -6.035694,7.171227 -3.973633,11.426758 2.064293,4.259941 7.177655,6.033199 11.432617,3.97168 z M 50.491211,39.709961 c 3.73505,-1.810726 8.272106,-0.259392 10.094238,3.500976 1.816895,3.75 0.243652,8.280274 -3.506348,10.09668 -3.757522,1.821705 -8.274616,0.254521 -10.096679,-3.506836 -1.820721,-3.756622 -0.248959,-8.272064 3.508789,-10.09082 z"
     fill="#384b7d"
     id="path28"
     style="fill:#a30262;fill-opacity:1" />
  <path
     d="m 32.529297,43.369141 3.078613,2.191406 c -0.04492,1.189453 0.021,2.359375 0.196289,3.484375 l -2.804687,2.554687 c -0.692383,0.631836 -0.882813,1.623047 -0.475098,2.465821 l 1.909668,3.941406 c 0.401856,0.831055 1.316406,1.305664 2.229981,1.15625 l 3.743164,-0.617188 c 0.783203,0.84668 1.660156,1.624024 2.611816,2.314454 l -0.175293,3.501953 c -0.0542,1.083984 0.624023,2.089843 1.648438,2.447265 l 3.887695,1.353516 c 0.224121,0.07813 0.455078,0.116211 0.68457,0.116211 0.666016,0 1.31543,-0.317383 1.71582,-0.879883 l 2.189942,-3.077148 c 1.169922,0.04395 2.336914,-0.02344 3.47998,-0.204102 l 2.554688,2.804687 c 0.622558,0.682618 1.636719,0.87793 2.46582,0.475586 l 3.948242,-1.912109 c 0.831543,-0.40332 1.306153,-1.322266 1.154786,-2.233398 l -0.621582,-3.737305 c 0.848632,-0.786133 1.626464,-1.660156 2.316406,-2.604492 l 3.78125,0.185547 c 0.918945,0.0625 1.783203,-0.532227 2.085937,-1.408204 l 1.436524,-4.14746 c 0.302734,-0.875 -0.01172,-1.860352 -0.765625,-2.397461 l -3.080078,-2.191407 c 0.04199,-1.180664 -0.02637,-2.348632 -0.203125,-3.479492 l 2.804687,-2.554687 c 0.682617,-0.622071 0.87793,-1.635743 0.475586,-2.465821 l -1.910156,-3.943359 c -0.402344,-0.830078 -1.317383,-1.305664 -2.229492,-1.154297 l -3.743165,0.616211 C 66.153809,33.143555 65.279785,32.366211 64.316406,31.65625 l 0.188965,-3.776367 c 0.04639,-0.923828 -0.531738,-1.782227 -1.405762,-2.085938 l -4.145507,-1.445312 c -0.875489,-0.304688 -1.861329,0.0098 -2.398926,0.764648 l -2.197754,3.083008 c -1.193848,-0.03516 -2.361328,0.02832 -3.478516,0.202148 L 48.331055,25.59375 c -0.622071,-0.68457 -1.638672,-0.879883 -2.468262,-0.477539 l -3.947266,1.912109 c -0.831054,0.402344 -1.306152,1.319336 -1.155761,2.229492 l 0.616211,3.743165 c -0.826661,0.766601 -1.603516,1.640625 -2.314942,2.605468 l -3.772949,-0.188476 c -0.916016,-0.05566 -1.784668,0.532226 -2.088379,1.408203 l -1.436523,4.146484 c -0.302735,0.875 0.01221,1.860352 0.766113,2.396485 z m 0.179199,-2.06836 1.436523,-4.147461 c 0.158204,-0.458007 0.599122,-0.757812 1.092774,-0.737304 l 4.043457,0.202148 c 0.168457,0.02344 0.332031,-0.06934 0.431152,-0.208008 0.769531,-1.072265 1.622559,-2.032226 2.535156,-2.850586 0.126954,-0.114257 0.187012,-0.285156 0.15918,-0.453125 l -0.660644,-4.010742 c -0.07861,-0.476562 0.17041,-0.957031 0.60498,-1.166992 l 3.947754,-1.912109 c 0.436035,-0.213868 0.966309,-0.109375 1.291992,0.249023 l 2.730469,3.005859 c 0.115234,0.126954 0.287109,0.186524 0.455078,0.157227 1.212891,-0.209961 2.492676,-0.283203 3.807617,-0.222656 0.169434,0.01855 0.331543,-0.07031 0.430665,-0.208985 l 2.35498,-3.303711 c 0.28125,-0.395507 0.79834,-0.558593 1.255859,-0.40039 l 4.14502,1.445312 c 0.457519,0.15918 0.760254,0.607422 0.73584,1.090821 l -0.202149,4.046875 c -0.0083,0.169922 0.06982,0.333007 0.208008,0.43164 1.071777,0.768555 2.030762,1.621094 2.850098,2.53418 0.114258,0.125977 0.285156,0.191406 0.453125,0.15918 l 4.010742,-0.660157 c 0.484375,-0.0791 0.953125,0.164063 1.167969,0.604493 l 1.909179,3.942382 c 0.210938,0.434571 0.108399,0.964844 -0.249023,1.291016 l -3.004883,2.738281 c -0.125976,0.114258 -0.18457,0.286133 -0.15625,0.454102 0.212891,1.230469 0.288086,2.510742 0.223633,3.80664 -0.0088,0.169922 0.07031,0.333008 0.208984,0.431641 l 3.300782,2.348633 c 0.394531,0.28125 0.55957,0.797851 0.40039,1.254883 l -1.436523,4.147461 c -0.158203,0.458007 -0.601563,0.77832 -1.091797,0.738281 l -4.052734,-0.199219 c -0.169434,-0.03223 -0.333985,0.07031 -0.432618,0.209961 -0.740234,1.045898 -1.592285,2.003906 -2.532714,2.847656 -0.126953,0.114258 -0.1875,0.285157 -0.15918,0.454102 l 0.666016,4.005859 c 0.0791,0.477539 -0.169434,0.958008 -0.604493,1.168946 l -3.947754,1.912109 c -0.434082,0.211914 -0.965332,0.109375 -1.291015,-0.249023 l -2.737793,-3.004883 c -0.115235,-0.125977 -0.285645,-0.183594 -0.45459,-0.15625 -1.245605,0.216797 -2.527832,0.290039 -3.804687,0.223633 -0.169922,-0.03125 -0.334961,0.06934 -0.433594,0.208984 l -2.347657,3.298828 c -0.28125,0.395508 -0.798339,0.561523 -1.256347,0.399414 L 44.821289,65.864258 C 44.212891,65.65332 43.810547,65.055664 43.842774,64.413086 l 0.188964,-3.775391 c 0.0083,-0.171875 -0.07178,-0.335937 -0.211914,-0.43457 -1.054199,-0.740234 -2.01416,-1.59082 -2.853515,-2.52832 -0.0957,-0.106445 -0.231934,-0.166016 -0.372559,-0.166016 -0.02685,0 -0.0542,0.002 -0.08154,0.0068 l -4.01123,0.661133 c -0.472657,0.0752 -0.956055,-0.170898 -1.166504,-0.605469 l -1.909668,-3.941406 c -0.213868,-0.441406 -0.11377,-0.960938 0.248535,-1.291992 l 3.004883,-2.736328 c 0.125976,-0.115235 0.185058,-0.28711 0.155761,-0.455079 -0.210449,-1.220703 -0.283203,-2.502929 -0.214843,-3.808593 0.0088,-0.170899 -0.07031,-0.334961 -0.209473,-0.433594 l -3.300781,-2.34961 c -0.394532,-0.281249 -0.559082,-0.796874 -0.400391,-1.253906 z"
     fill="#384b7d"
     id="path29"
     style="fill:#a30262;fill-opacity:1" />
  <path
     d="m 93.18457,66.266602 c 0.08691,0 0.174805,-0.002 0.261719,-0.0049 9.77e-4,-9.77e-4 9.77e-4,-9.77e-4 9.77e-4,-9.77e-4 3.235351,-0.144531 5.756836,-2.895508 5.621093,-6.132812 -0.142578,-3.231446 -2.86914,-5.713868 -6.130866,-5.613282 -3.241623,0.143578 -5.758538,2.889038 -5.61718,6.122071 0.137435,3.200863 2.781669,5.629883 5.864257,5.629883 z m 0.0049,-10.756836 c 2.59668,0 4.764649,2.049804 4.878906,4.661132 0.113282,2.686524 -1.979492,4.970703 -4.665039,5.090821 -2.649681,0.125984 -4.968696,-1.944836 -5.083008,-4.667969 -0.123847,-2.787594 2.123238,-5.083984 4.869141,-5.083984 z"
     fill="#384b7d"
     id="path30"
     style="fill:#a30262;fill-opacity:1" />
  <path
     d="m 78.614258,64.09082 2.195312,0.548828 c 0.275391,0.75293 0.616211,1.479493 1.016602,2.166016 l -0.994141,2.021484 c -0.423828,0.859375 -0.226562,1.91211 0.477539,2.560547 l 1.742188,1.601563 c 0.706055,0.647461 1.770508,0.754883 2.591797,0.262695 l 1.94043,-1.165039 c 0.708984,0.335938 1.45996,0.610352 2.236328,0.818359 l 0.733398,2.136719 c 0.300781,0.874024 1.138672,1.466797 2.057617,1.465821 0.128243,0 -0.07707,0.0045 2.461914,-0.101563 0.956055,-0.04102 1.786133,-0.71875 2.016602,-1.649414 l 0.544922,-2.195313 c 0.74414,-0.264648 1.469726,-0.602539 2.162109,-1.005859 l 2.031255,1.000977 c 0.8623,0.422851 1.91796,0.224609 2.56445,-0.486328 l 1.60644,-1.75879 c 0.64551,-0.707031 0.75,-1.77246 0.25489,-2.59082 l -1.16895,-1.930664 c 0.33756,-0.731361 0.61487,-1.488335 0.81348,-2.229492 l 2.14355,-0.736328 c 0.90332,-0.310547 1.50586,-1.194336 1.46485,-2.148438 l -0.10059,-2.371094 c -0.041,-0.957031 -0.71876,-1.786132 -1.64941,-2.016601 l -2.19825,-0.545899 c -0.0586,-0.163085 -0.12207,-0.330078 -0.19336,-0.515625 -0.23046,-0.570312 -0.5039,-1.125976 -0.81347,-1.655273 l 0.99512,-2.021484 c 0.42285,-0.858399 0.22753,-1.911133 -0.47657,-2.559571 l -1.74609,-1.608398 c -0.70703,-0.649414 -1.77344,-0.758789 -2.59766,-0.260742 l -1.960935,1.186523 -2.207031,-0.801758 -0.735352,-2.163086 C 95.514648,44.43457 94.611328,43.81543 93.671875,43.870117 l -2.369141,0.101563 c -0.955078,0.04102 -1.784179,0.716797 -2.016601,1.644531 l -0.557617,2.197266 c -0.757813,0.279296 -1.467774,0.612304 -2.15625,1.012695 l -2.017578,-0.999024 c -0.864258,-0.426757 -1.923829,-0.228515 -2.57129,0.483399 L 80.381836,50.0625 c -0.647461,0.708984 -0.750977,1.777344 -0.250977,2.59668 l 1.168946,1.919922 c -0.361328,0.759765 -0.634766,1.498047 -0.830078,2.241211 l -2.140625,0.737304 c -0.905274,0.310547 -1.507813,1.196289 -1.464844,2.152344 l 0.105469,2.368164 c 0.04199,0.953125 0.717765,1.780273 1.644531,2.012695 z m 0.04004,-5.58789 2.397461,-0.825196 c 0.161133,-0.05566 0.284179,-0.190429 0.323242,-0.357421 0.200195,-0.841797 0.508789,-1.673829 0.941406,-2.544922 0.07715,-0.153321 0.06934,-0.335938 -0.02051,-0.482422 l -1.311523,-2.154297 c -0.269531,-0.442383 -0.213867,-1.018555 0.135742,-1.402344 l 1.601563,-1.751953 c 0.351562,-0.384766 0.923828,-0.493164 1.389648,-0.260742 l 2.261719,1.11914 c 0.15332,0.07324 0.333984,0.06836 0.481445,-0.02148 0.777344,-0.472656 1.580078,-0.850586 2.457032,-1.15332 0.158203,-0.05469 0.279296,-0.186524 0.320312,-0.348633 l 0.625,-2.460938 c 0.125,-0.500976 0.572266,-0.865234 1.088867,-0.886718 l 2.369141,-0.101563 c 0.503906,-0.04785 0.995117,0.305664 1.161133,0.794922 l 0.8125,2.389648 c 0.04883,0.143555 0.160156,0.256836 0.302734,0.308594 l 2.657227,0.96582 c 0.142578,0.05273 0.299804,0.03711 0.429687,-0.04199 l 2.166016,-1.310547 c 0.44335,-0.267578 1.01953,-0.209961 1.40234,0.141602 l 1.7461,1.608398 c 0.37988,0.34961 0.48633,0.917969 0.25781,1.381836 l -1.11523,2.265625 c -0.0762,0.154297 -0.0674,0.335938 0.0225,0.482422 0.49751,0.811508 0.85904,1.61776 1.14551,2.466797 0.0547,0.161133 0.1875,0.283203 0.35351,0.324219 l 2.45996,0.611328 c 0.50195,0.124023 0.86817,0.572266 0.88965,1.088867 l 0.10059,2.371094 c 0.0225,0.515625 -0.30274,0.992187 -0.79004,1.160156 l -2.44532,0.842774 c -0.14062,0.06348 -0.24414,0.189453 -0.27929,0.339843 -0.0518,0.216797 -0.11231,0.438477 -0.17676,0.649414 -0.19727,0.638672 -0.44922,1.274415 -0.74707,1.890625 -0.0732,0.152344 -0.0654,0.332032 0.0225,0.476563 l 1.30762,2.160156 c 0.26758,0.442383 0.21093,1.017578 -0.1377,1.399414 l -1.60644,1.758789 c -0.35059,0.38379 -0.91895,0.491211 -1.38477,0.262696 l -2.27539,-1.120117 c -0.152344,-0.07715 -0.334961,-0.06836 -0.481446,0.02148 -0.77832,0.476563 -1.604492,0.860352 -2.455078,1.141602 -0.163086,0.05371 -0.287109,0.1875 -0.328125,0.354492 l -0.610351,2.459961 c -0.125,0.501953 -0.572266,0.868164 -1.088868,0.889648 l -2.371093,0.100586 c -0.481446,0.03516 -0.992188,-0.302734 -1.160157,-0.790039 L 90.67879,72.326174 c -0.05469,-0.161133 -0.1875,-0.282227 -0.352539,-0.323242 -0.892578,-0.220703 -1.748047,-0.533203 -2.543946,-0.931641 -0.153793,-0.0769 -0.337097,-0.06877 -0.481445,0.01856 l -2.172851,1.304687 c -0.44336,0.267578 -1.019532,0.208008 -1.398438,-0.141601 l -1.742266,-1.60157 C 81.606445,70.301758 81.5,69.732422 81.728516,69.268555 l 1.114257,-2.264649 c 0.07617,-0.15332 0.06738,-0.334961 -0.02148,-0.481445 -0.470703,-0.771484 -0.860352,-1.600586 -1.157227,-2.464844 -0.05469,-0.160156 -0.1875,-0.282226 -0.35157,-0.323242 l -2.456047,-0.614258 c -0.5,-0.125 -0.865234,-0.571289 -0.887695,-1.085937 l -0.106445,-2.369141 c -0.02246,-0.516601 0.302734,-0.994141 0.791992,-1.162109 z"
     fill="#384b7d"
     id="path31"
     style="fill:#a30262;fill-opacity:1" />
  <path
     d="m 84.174805,80.651367 c 0.276367,0 0.5,-0.223633 0.5,-0.5 0,-0.276367 -0.223633,-0.5 -0.5,-0.5 h -27.19336 c -0.276367,0 -0.5,0.223633 -0.5,0.5 0,0.276367 0.223633,0.5 0.5,0.5 z"
     fill="#384b7d"
     id="path32"
     style="fill:#a30262;fill-opacity:1" />
  <path
     d="M 92.195312,83.793945 H 48.960937 c -0.276367,0 -0.5,0.223633 -0.5,0.5 0,0.276367 0.223633,0.5 0.5,0.5 h 43.234375 c 0.276368,0 0.5,-0.223633 0.5,-0.5 0,-0.276367 -0.223632,-0.5 -0.5,-0.5 z"
     fill="#384b7d"
     id="path33"
     style="fill:#a30262;fill-opacity:1" />
  <path
     d="m 40.15625,118.07617 h 0.321777 c 0.276368,0 0.5,-0.22363 0.5,-0.5 0,-0.27637 -0.223632,-0.5 -0.5,-0.5 H 40.15625 c -0.276367,0 -0.5,0.22363 -0.5,0.5 0,0.27637 0.223633,0.5 0.5,0.5 z"
     fill="#384b7d"
     id="path34"
     style="fill:#a30262;fill-opacity:1" />
</svg>
