<?xml version="1.0" encoding="UTF-8" standalone="no"?>
<svg
   id="Layer_1"
   enable-background="new 0 0 133 133"
   height="512"
   viewBox="0 0 133 133"
   width="512"
   version="1.1"
   sodipodi:docname="points-selfhosted.svg"
   inkscape:version="1.3.2 (091e20ef0f, 2023-11-25)"
   xmlns:inkscape="http://www.inkscape.org/namespaces/inkscape"
   xmlns:sodipodi="http://sodipodi.sourceforge.net/DTD/sodipodi-0.dtd"
   xmlns="http://www.w3.org/2000/svg"
   xmlns:svg="http://www.w3.org/2000/svg">
  <defs
     id="defs59" />
  <sodipodi:namedview
     id="namedview59"
     pagecolor="#ffffff"
     bordercolor="#000000"
     borderopacity="0.25"
     inkscape:showpageshadow="2"
     inkscape:pageopacity="0.0"
     inkscape:pagecheckerboard="0"
     inkscape:deskcolor="#d1d1d1"
     inkscape:zoom="0.60628882"
     inkscape:cx="-388.42873"
     inkscape:cy="67.624535"
     inkscape:window-width="2752"
     inkscape:window-height="1124"
     inkscape:window-x="0"
     inkscape:window-y="0"
     inkscape:window-maximized="1"
     inkscape:current-layer="Layer_1" />
  <g
     id="g16">
    <g
       id="g1">
      <path
         d="M 118.20984,59.046215 V 123.00618 H 14.799805 V 59.046215 c 0,-2.080078 1.710022,-3.770019 3.799987,-3.770019 h 95.830018 c 2.09003,0 3.78003,1.689941 3.78003,3.770019 z"
         fill="#bcdae6"
         id="path1" />
    </g>
    <g
       opacity="0.4"
       id="g2">
      <path
         d="m 118.20106,59.065617 v 2.227439 c 0,-2.087448 -1.69288,-3.780246 -3.78033,-3.780246 H 18.577192 c -2.087448,0 -3.780323,1.692798 -3.780323,3.780246 v -2.227439 c 0,-2.087449 1.692875,-3.792988 3.780323,-3.792988 h 95.843538 c 2.08745,0 3.78033,1.70554 3.78033,3.792988 z"
         fill="#ffffff"
         id="path2" />
    </g>
    <g
       opacity="0.05"
       id="g3">
      <path
         d="m 47.709305,55.205002 h 19.73999 c 0.419983,1.23999 0.25,2.609863 -0.470032,3.72998 l -5.709961,8.919922 c -0.809997,1.26001 -2.190002,2.01001 -3.690002,2.01001 -1.48999,0 -2.869995,-0.75 -3.679993,-2.01001 l -5.720031,-8.919922 c -0.710023,-1.120117 -0.880005,-2.48999 -0.469971,-3.72998 z"
         id="path3" />
    </g>
    <g
       opacity="0.05"
       id="g4">
      <path
         d="m 82.729797,55.276195 v 11.389889 c 0,2.410034 -1.959961,4.370117 -4.369995,4.370117 h -5.880005 c -2.409973,0 -4.380005,-1.960083 -4.380005,-4.370117 V 55.276195 Z"
         id="path4" />
    </g>
    <g
       id="g5">
      <path
         d="m 19.85,60.326 h 93.32 v 57.64 H 19.85 Z"
         fill="#ffffff"
         id="path5" />
    </g>
    <g
       opacity="0.5"
       id="g10">
      <g
         id="g6">
        <path
           d="M 91.000763,60.325699 57.907371,117.97258 H 32.769119 L 65.862511,60.325699 Z"
           fill="#d4f4ff"
           id="path6" />
      </g>
      <g
         opacity="0.05"
         id="g7">
        <path
           d="m 66.089844,60.326122 -4.820008,7.530026 c -0.809997,1.26001 -2.190002,2.01001 -3.690002,2.01001 -1.48999,0 -2.869995,-0.75 -3.679993,-2.01001 l -4.830017,-7.530026 z"
           id="path7" />
      </g>
      <g
         opacity="0.05"
         id="g8">
        <path
           d="m 82.729797,60.326122 v 6.339962 c 0,2.410034 -1.959961,4.370117 -4.369995,4.370117 h -5.880005 c -2.409973,0 -4.380005,-1.960083 -4.380005,-4.370117 v -6.339962 z"
           id="path8" />
      </g>
      <g
         id="g9">
        <path
           d="M 100.22873,60.325699 67.135338,117.97258 h -6.04591 L 94.182816,60.325699 Z"
           fill="#d4f4ff"
           id="path9" />
      </g>
    </g>
    <g
       id="g11">
      <path
         d="m 123.85664,123.00995 v 3.66992 c 0,2.10999 -1.71002,3.82007 -3.82,3.82007 H 12.966627 c -0.149963,0 -0.299988,-0.01 -0.449951,-0.03 -1.25,-0.15002 -2.320007,-0.90002 -2.8900147,-1.95996 -0.01001,0 -0.01001,-0.01 -0.01001,-0.01 -0.2999878,-0.54004 -0.460022,-1.16004 -0.460022,-1.82007 v -3.66992 z"
         fill="#bcdae6"
         id="path10" />
    </g>
    <g
       opacity="0.05"
       id="g12">
      <path
         d="m 123.8598,124.59614 v 2.07996 c 0,2.11011 -1.70996,3.82007 -3.82001,3.82007 H 12.969788 c -0.149964,0 -0.299988,-0.01 -0.449952,-0.03 -1.25,-0.1499 -2.320007,-0.8999 -2.8900142,-1.95996 -0.01001,0 -0.01001,-0.01 -0.01001,-0.01 C 9.3198242,127.95612 9.15979,127.33613 9.15979,126.6761 v -2.07996 c 0,0.66004 0.1600342,1.28003 0.460022,1.81994 0,0 0,0.01 0.01001,0.01 0.570007,1.06006 1.640014,1.81006 2.890014,1.96008 0.149964,0.0199 0.299988,0.0299 0.449952,0.0299 H 120.03979 c 2.11005,0 3.82001,-1.70997 3.82001,-3.81995 z"
         id="path11" />
    </g>
    <g
       opacity="0.05"
       id="g13">
      <path
         d="m 9.2161741,127.40233 c -0.052319,-0.24041 -0.073182,-0.47035 -0.073182,-0.72123 v -2.75974 c 0,0.0627 0,0.1359 0.010464,0.19868 v 2.56106 c 0,0.25088 0.020864,0.48082 0.062718,0.72123 z"
         id="path12" />
    </g>
    <g
       id="g14">
      <path
         d="m 78.936997,123.01299 c 0,2.31272 -1.874833,4.18756 -4.187554,4.18756 H 58.253548 c -2.312722,0 -4.187554,-1.87484 -4.187554,-4.18756 z"
         fill="#ffffff"
         id="path13" />
    </g>
    <g
       opacity="0.4"
       id="g15">
      <path
         d="m 78.934425,123.01299 c 0,0.58552 -0.12725,1.14556 -0.343689,1.65465 H 54.407108 c -0.216358,-0.50909 -0.343609,-1.06913 -0.343609,-1.65465 z"
         fill="#d4f4ff"
         id="path14" />
    </g>
  </g>
  <g
     id="g17"
     style="fill:#e197c3;fill-opacity:1">
    <path
       d="m 103.17981,36.156078 c 0,5.52002 -4.469971,10.01001 -10,10.01001 H 43.339844 c -1.090027,0 -2.140015,-0.129883 -3.160034,-0.379883 -5.950013,-1.420044 -10.369996,-6.770019 -10.369996,-13.150024 0,-6.089966 4.01001,-11.230103 9.539978,-12.930054 0.460023,-9.319946 7.960023,-16.8000486 17.300049,-17.1899412 0.259949,-0.01001 0.519959,-0.02002 0.789978,-0.02002 6.419983,0 12.059998,3.3499756 15.27002,8.3999032 2.23999,-1.5599375 4.949951,-2.4799814 7.869995,-2.4799814 h 0.03998 c 1.76001,0.01001 3.440002,0.3400879 4.98999,0.9500732 1.410034,0.5599365 2.720032,1.3499762 3.859986,2.3199472 2.950012,2.520019 4.820007,6.260009 4.820007,10.440062 0,1.410034 -0.209961,2.760011 -0.609985,4.039917 5.289978,0.26001 9.499998,4.630127 9.499998,9.989991 z"
       fill="#ffffff"
       id="path16"
       style="fill:#e197c3;fill-opacity:1" />
  </g>
  <g
     id="g18"
     style="fill:#e9a5cd;fill-opacity:1">
    <path
       d="m 103.18805,36.151939 c 0,5.526539 -4.477181,10.003891 -10.003808,10.003891 H 43.332848 c -7.471447,0 -13.515747,-6.058219 -13.515747,-13.515747 0,-0.643551 0.04201,-1.287101 0.139965,-1.902811 0.9374,6.56206 6.561973,11.598932 13.375782,11.598932 h 49.851394 c 4.882988,0 8.940448,-3.48402 9.807988,-8.115085 0.12588,0.629715 0.19582,1.273266 0.19582,1.93082 z"
       fill="#f3fcff"
       id="path17"
       style="fill:#e9a5cd;fill-opacity:1" />
  </g>
  <g
     id="g23"
     style="fill:#d162a4;fill-opacity:1">
    <g
       id="g19"
       style="fill:#d162a4;fill-opacity:1">
      <path
         d="M 80.617523,8.4170084 66.262924,46.161263 H 43.339066 c -1.08667,0 -2.142331,-0.124252 -3.156548,-0.372627 L 56.648365,2.5178444 c 0.258736,-0.010359 0.517471,-0.020656 0.786564,-0.020656 6.426994,0 12.06736,3.3531919 15.275711,8.4036986 2.235435,-1.5627676 4.946976,-2.4838787 7.865509,-2.4838787 z"
         fill="#d4f4ff"
         id="path18"
         style="fill:#d162a4;fill-opacity:1" />
    </g>
    <g
       opacity="0.05"
       id="g20"
       style="fill:#d162a4;fill-opacity:1">
      <path
         d="m 50.269302,46.094894 -3e-6,-11.389896 c 0,-2.410034 1.95996,-4.370115 4.369998,-4.370115 h 5.880005 c 2.409974,0 4.380005,1.960081 4.380005,4.370115 v 11.389896 z"
         id="path19"
         style="fill:#d162a4;fill-opacity:1" />
    </g>
    <g
       id="g21"
       style="fill:#d162a4;fill-opacity:1">
      <path
         d="M 89.466301,11.687388 76.353577,46.161265 H 71.613602 L 85.605934,9.3691349 c 1.417862,0.5589066 2.721893,1.3454701 3.860367,2.3182531 z"
         fill="#d4f4ff"
         id="path20"
         style="fill:#d162a4;fill-opacity:1" />
    </g>
    <g
       opacity="0.05"
       id="g22"
       style="fill:#d162a4;fill-opacity:1">
      <path
         d="m 85.289795,46.166088 h -19.73999 c -0.419983,-1.23999 -0.25,-2.609863 0.470031,-3.72998 l 5.709961,-8.919922 c 0.809998,-1.26001 2.190003,-2.01001 3.690003,-2.01001 1.48999,0 2.869995,0.75 3.679992,2.01001 l 5.720032,8.919922 c 0.710022,1.120117 0.880005,2.48999 0.469971,3.72998 z"
         id="path21"
         style="fill:#d162a4;fill-opacity:1" />
    </g>
  </g>
  <g
     id="g24">
    <path
       d="m 30.672852,29.57373 -0.972657,-0.233398 c 1.124024,-4.679199 4.621094,-8.483887 9.169922,-10.006348 0.494141,-7.330566 5.236328,-13.6674801 12.163086,-16.205566 l 0.34375,0.9384766 C 44.719726,6.506836 40.194336,12.654785 39.848633,19.729492 l -0.0166,0.350586 -0.335937,0.103028 c -4.374024,1.342285 -7.754883,4.940429 -8.823242,9.390624 z"
       fill="#62809e"
       id="path23" />
  </g>
  <path
     d="m 68.540848,44.057751 5.718513,-8.917981 c 0.541054,-0.843765 1.774033,-0.843765 2.315087,8e-6 l 5.718513,8.918049 c 0.586861,0.915211 -0.07035,2.117336 -1.157554,2.117329 l -1.404488,-8e-6 8e-6,20.487595 c 0,0.759437 -0.615654,1.375083 -1.375092,1.375083 l -5.877869,-3.8e-5 c -0.75943,-7e-6 -1.375068,-0.615646 -1.375068,-1.375084 l -8e-6,-20.487609 -1.40451,-1.2e-5 c -1.087197,-4e-6 -1.744393,-1.202129 -1.157532,-2.117332 z"
     fill="#00ffc1"
     id="path41"
     style="stroke-width:1.0001;stroke-dasharray:none;fill:#b55690;fill-opacity:1" />
  <path
     d="m 64.458786,57.314533 -5.71851,8.91798 c -0.54105,0.843766 -1.774032,0.843766 -2.315082,-7e-6 l -5.718521,-8.918045 c -0.586861,-0.915211 0.07035,-2.11734 1.157554,-2.117333 l 1.404484,8e-6 -8e-6,-20.487598 c 0,-0.759438 0.615651,-1.375084 1.375088,-1.375081 l 5.877873,3.9e-5 c 0.75943,3e-6 1.375068,0.615646 1.375068,1.375076 l 1.2e-5,20.487617 1.40451,8e-6 c 1.087204,8e-6 1.744393,1.202133 1.157532,2.117336 z"
     fill="#ff4b3a"
     id="path42"
     style="fill:#a30262;fill-opacity:1" />
  <path
     d="M 3.21875,130 H 2.5 c -0.2763672,0 -0.5,0.22363 -0.5,0.5 0,0.27637 0.2236328,0.5 0.5,0.5 h 0.71875 c 0.2763672,0 0.5,-0.22363 0.5,-0.5 0,-0.27637 -0.2236328,-0.5 -0.5,-0.5 z"
     id="path43"
     style="fill:#384b7d" />
  <path
     d="m 130.5,130 h -0.91699 c -0.27637,0 -0.5,0.22363 -0.5,0.5 0,0.27637 0.22363,0.5 0.5,0.5 H 130.5 c 0.27637,0 0.5,-0.22363 0.5,-0.5 0,-0.27637 -0.22363,-0.5 -0.5,-0.5 z"
     id="path45"
     style="fill:#384b7d" />
  <path
     d="M 47.953125,8.3286133 C 47.220703,8.894043 46.53418,9.5302735 45.913086,10.21875 c -0.185547,0.205078 -0.168945,0.521484 0.03613,0.706055 0.204097,0.184313 0.520324,0.169823 0.706054,-0.03613 0.581055,-0.644531 1.223633,-1.2392579 1.90918,-1.7680665 C 48.7832,8.9516632 48.823239,8.6376983 48.65429,8.4189483 48.484375,8.199707 48.169922,8.1606445 47.953125,8.3286133 Z"
     id="path46"
     style="fill:#a30262;fill-opacity:1" />
  <path
     d="m 44.982422,12.203613 c -0.230469,-0.144531 -0.540039,-0.07764 -0.689453,0.157715 -1.402344,2.234863 -2.212891,4.818848 -2.340821,7.471192 -0.01367,0.275878 0.199219,0.510253 0.47461,0.523925 0.0088,4.89e-4 0.0166,4.89e-4 0.02441,4.89e-4 0.265625,0 0.486328,-0.208008 0.499023,-0.475586 0.121094,-2.481934 0.87793,-4.898438 2.19043,-6.98877 0.146484,-0.233887 0.07617,-0.54248 -0.158203,-0.688965 z"
     id="path47"
     style="fill:#a30262;fill-opacity:1" />
  <path
     d="m 127.08301,130 h -4.32093 c 0.96387,-0.7926 1.59241,-1.97882 1.59241,-3.32129 v -3.66357 c 0,-0.27637 -0.22363,-0.5 -0.5,-0.5 h -5.14453 V 59.060059 c 0,-2.360352 -1.9248,-4.280274 -4.29004,-4.280274 H 80.230469 v -8.104492 h 0.905273 c 0.06714,0 0.128907,-0.01904 0.194336,-0.0257 v 0.01056 h 11.84961 c 5.788513,0 10.497192,-4.707885 10.499752,-10.495422 0,-4.27e-4 2.5e-4,-7.33e-4 2.5e-4,-0.0012 0,-5.49e-4 -6e-5,-0.0012 -6e-5,-0.0017 0,-5.49e-4 6e-5,-0.0012 6e-5,-0.0017 0,-5.41637 -4.279521,-9.981241 -9.233584,-10.419067 -0.03955,-0.0048 -0.07788,-0.01361 -0.117554,-0.01801 0.306214,-1.161438 0.461487,-2.367309 0.461487,-3.5932 0,-7.83545 -6.378906,-14.2099612 -14.219726,-14.2099612 -2.700463,0 -5.432579,0.7867956 -7.720398,2.2690432 C 69.370544,5.0517578 63.645569,2 57.429688,2 47.644032,2 39.525826,9.5926962 38.875122,19.336487 c -5.736572,1.905212 -9.565552,7.208008 -9.565552,13.30365 0,7.730468 6.293946,14.020019 14.030274,14.020019 h 9.428711 v 8.03711 h -0.904297 c -0.188538,0 -0.369019,0.03137 -0.541748,0.08252 H 18.580078 c -2.360351,0 -4.280273,1.919922 -4.280273,4.280273 V 122.51514 H 9.1484375 c -0.2763672,0 -0.5,0.22363 -0.5,0.5 v 3.66357 c 0,1.34247 0.62854,2.52869 1.5924075,3.32129 H 6.03125 c -0.2763672,0 -0.5,0.22363 -0.5,0.5 0,0.27637 0.2236328,0.5 0.5,0.5 h 121.05176 c 0.27637,0 0.5,-0.22363 0.5,-0.5 0,-0.27637 -0.22363,-0.5 -0.5,-0.5 z m -48.681094,-6.48486 c -0.244995,1.79693 -1.790283,3.18554 -3.652893,3.18554 H 58.253906 c -1.863586,0 -3.407898,-1.38861 -3.652893,-3.18554 z M 56.003906,66.502441 c 0.34668,0.54004 0.936524,0.862793 1.578125,0.862793 0.642578,0 1.232422,-0.322753 1.579102,-0.862793 l 3.644043,-5.682617 h 7.797363 v 5.842774 c 0,1.033691 0.84082,1.875 1.875,1.875 h 5.87793 c 1.03418,0 1.875,-0.841309 1.875,-1.875 V 60.819824 H 112.66016 V 117.46973 H 20.339844 V 60.819824 h 32.02063 z m 6.392578,-19.842285 h 7.113282 v -0.0098 c 0.06354,0.0063 0.123352,0.0249 0.188476,0.0249 h 0.904297 v 8.104492 h -6.759887 c -0.172791,-0.05115 -0.353333,-0.08252 -0.541871,-0.08252 h -0.904296 z m 2.591858,9.119629 h 5.614197 v 4.040039 h -7.156128 l 1.433472,-2.235351 c 0.354858,-0.55304 0.384948,-1.217835 0.108459,-1.804688 z M 79.730469,45.675293 c -0.276367,0 -0.5,0.223633 -0.5,0.5 v 20.487305 c 0,0.482422 -0.392578,0.875 -0.875,0.875 h -5.87793 c -0.482422,0 -0.875,-0.392578 -0.875,-0.875 V 46.175293 c 0,-0.276367 -0.223633,-0.5 -0.5,-0.5 h -1.404297 c -0.325195,0 -0.611328,-0.169922 -0.767578,-0.455078 -0.15625,-0.285156 -0.144531,-0.619141 0.03125,-0.892578 l 5.71875,-8.917969 c 0.328125,-0.511719 1.144531,-0.511719 1.472656,0 l 5.71875,8.917969 c 0.175782,0.273437 0.1875,0.607422 0.03125,0.892578 -0.15625,0.285156 -0.442382,0.455078 -0.767578,0.455078 z m -36.390625,-0.01514 c -7.184571,0 -13.030274,-5.84082 -13.030274,-13.020019 0,-5.532166 3.400025,-10.352478 8.525147,-12.22052 -5.49e-4,0.0592 -0.0066,0.117309 -0.0066,0.176575 0,2.555175 0.503906,5.020507 1.49707,7.327636 0.08105,0.188965 0.265625,0.302246 0.458985,0.302246 0.356556,0 0.601894,-0.365997 0.458984,-0.697754 -0.938476,-2.181152 -1.415039,-4.513671 -1.415039,-6.932128 0,-0.358277 0.01862,-0.712891 0.03979,-1.066895 C 40.651821,9.3172274 48.895859,3 57.429687,3 c 5.887391,0 11.304017,2.8988647 14.595826,7.769836 -1.404786,1.060547 -2.624329,2.391297 -3.582154,3.956238 -0.143554,0.235352 -0.06934,0.542969 0.166016,0.687012 0.229004,0.142091 0.540054,0.07464 0.6875,-0.165527 2.429672,-3.971444 6.784637,-6.3247074 11.276367,-6.3247074 0.0039,0 0.0071,-0.00214 0.01105,-0.0022 7.282653,0.00769 13.205749,5.9297484 13.205749,13.2092284 0,1.208984 -0.170227,2.393738 -0.490662,3.53241 -0.04321,-5.5e-4 -0.08514,-0.0065 -0.128479,-0.0065 -2.677734,0 -5.232421,1.010742 -7.192382,2.846679 -0.20118,0.188477 -0.211914,0.504883 -0.02344,0.706543 0.189453,0.201661 0.50586,0.211915 0.707031,0.02295 1.774415,-1.661133 4.085938,-2.576172 6.50879,-2.576172 0.251464,0 0.498352,0.01849 0.744995,0.03778 0.122314,0.01025 0.241027,0.01636 0.372192,0.03448 0.01367,0.0012 0.02679,0.0043 0.04047,0.0055 4.911667,0.600008 8.350164,4.812673 8.351074,9.428344 -9.8e-4,5.23761 -4.262206,9.498291 -9.499938,9.498291 H 82.795593 c 0.312378,-0.602234 0.286438,-1.298339 -0.08173,-1.872558 l -5.71875,-8.917969 c -0.34668,-0.540039 -0.936523,-0.862793 -1.578125,-0.862793 -0.641601,0 -1.231445,0.322754 -1.578125,0.862793 l -5.71875,8.917969 c -0.368164,0.574219 -0.394104,1.270324 -0.08173,1.872558 H 62.396484 V 34.709473 c 0,-1.033692 -0.84082,-1.875 -1.875,-1.875 h -5.877929 c -1.03418,0 -1.875,0.841308 -1.875,1.875 v 10.950683 z m 9.928711,10.03711 c 0.276367,0 0.5,-0.223633 0.5,-0.5 v -20.48779 c 0,-0.482422 0.392578,-0.875 0.875,-0.875 h 5.877929 c 0.482422,0 0.875,0.392578 0.875,0.875 v 20.487793 c 0,0.276367 0.223633,0.5 0.5,0.5 h 1.404297 c 0.690937,0 1.112808,0.76305 0.737305,1.347168 l -5.71875,8.917968 c -0.327148,0.510743 -1.144531,0.512696 -1.473633,0 L 51.12793,57.044434 c -0.319866,-0.497567 -0.06454,-1.132725 0.468139,-1.302124 0.0057,-0.0023 0.01099,-0.0046 0.01654,-0.007 0.0802,-0.02362 0.164062,-0.03802 0.251648,-0.03802 z m -37.96875,3.362793 c 0,-1.808594 1.471679,-3.280274 3.280273,-3.280274 H 50.17749 c -0.276184,0.586792 -0.246155,1.25177 0.108643,1.804688 l 1.433227,2.235351 H 19.839844 c -0.276367,0 -0.5,0.223633 -0.5,0.5 v 57.649909 c 0,0.27636 0.223633,0.5 0.5,0.5 h 93.320316 c 0.27636,0 0.5,-0.22364 0.5,-0.5 V 60.319824 c 0,-0.276367 -0.22364,-0.5 -0.5,-0.5 H 80.230469 v -4.040039 h 34.189451 c 1.81445,0 3.29004,1.47168 3.29004,3.280273 V 122.50977 H 15.299805 Z M 9.6484375,126.67871 v -3.16357 H 53.617187 c 0.254395,2.34613 2.223694,4.18554 4.636719,4.18554 h 16.495117 c 2.413025,0 4.382325,-1.83941 4.636719,-4.18554 h 43.968748 v 3.16357 c 0,1.82959 -1.48828,3.31836 -3.31836,3.31836 H 12.966797 c -1.830078,0 -3.3183595,-1.48877 -3.3183595,-3.31836 z"
     id="path44"
     style="display:inline;fill:#000000;stroke:none;stroke-opacity:1;stroke-width:0.42861328;stroke-dasharray:none;fill-opacity:1" />
  <g
     id="Flake"
     transform="matrix(0.09875485,0,0,0.09875485,28.198437,68.848558)"
     style="clip-rule:evenodd;fill-rule:evenodd;stroke-linecap:round;stroke-linejoin:round;stroke-miterlimit:2">
        <g
   id="path4861"
   transform="translate(66.1334,798.311)">
            <path
   d="m 247.523,-568.202 97.757,169.34 -44.925,0.422 -26.099,-45.495 -26.285,45.252 -22.322,-0.009 -11.433,-19.752 37.448,-64.392 -26.583,-46.26 z"
   style="fill:#5277c3;stroke:#ffffff;stroke-width:10px"
   id="path5-2" />

        </g>

        <g
   id="use4863"
   transform="translate(66.1334,798.311)">
            <path
   d="m 282.807,-637.955 -97.774,169.331 -22.827,-38.696 26.35,-45.35 -52.332,-0.138 -11.153,-19.335 11.389,-19.777 74.489,0.235 26.771,-46.152 z"
   style="fill:#d52d00;stroke:#ffffff;stroke-width:10px"
   id="path6-9" />

        </g>

        <g
   id="use4865"
   transform="translate(66.1334,798.311)">
            <path
   d="m 290.308,-502.594 195.532,0.009 -22.098,39.118 -52.45,-0.146 26.047,45.39 -11.168,19.327 -22.822,0.025 -37.041,-64.627 -53.355,-0.108 z"
   style="fill:#d52d00;stroke:#ffffff;stroke-width:10px"
   id="path7-1" />

        </g>

        <g
   id="use4867"
   transform="translate(66.1334,798.311)">
            <path
   d="m 404.115,-576.791 -97.758,-169.34 44.926,-0.421 26.099,45.495 26.285,-45.252 22.322,0.009 11.432,19.751 -37.448,64.392 26.584,46.261 z"
   style="fill:#d52d00;stroke:#ffffff;stroke-width:10px"
   id="path8-2" />

        </g>

        <g
   id="path4873"
   transform="translate(66.1334,798.311)">
            <path
   d="m 247.523,-568.202 97.757,169.34 -44.925,0.422 -26.099,-45.495 -26.285,45.252 -22.322,-0.009 -11.433,-19.752 37.448,-64.392 -26.583,-46.26 z"
   style="fill:#5277c3;stroke:#ffffff;stroke-width:10px"
   id="path9-7" />

        </g>

        <g
   id="use4875"
   transform="translate(66.1334,798.311)">
            <path
   d="m 361.069,-642.826 -195.531,-0.01 22.097,-39.117 52.45,0.145 -26.047,-45.389 11.169,-19.327 22.822,-0.025 37.041,64.627 53.354,0.108 z"
   style="fill:#d362a4;stroke:#ffffff;stroke-width:10px"
   id="path10-0" />

        </g>

        <g
   id="use4877"
   transform="translate(66.1334,798.311)">
            <path
   d="m 368.697,-507.074 97.774,-169.33 22.828,38.696 -26.35,45.35 52.332,0.137 11.153,19.336 -11.389,19.777 -74.49,-0.235 -26.771,46.152 z"
   style="fill:#a30262;stroke:#ffffff;stroke-width:10px"
   id="path11-9" />

        </g>

        <g
   id="path3336-6"
   transform="translate(66.1334,798.311)">
            <path
   d="m 247.639,-568.311 97.758,169.341 -44.926,0.421 -26.099,-45.495 -26.285,45.252 -22.322,-0.009 -11.433,-19.752 37.449,-64.392 -26.584,-46.26 z"
   style="fill:#ff9a56;stroke:#ffffff;stroke-width:10px"
   id="path12-3" />

        </g>

    </g>
</svg>
